<svg xmlns="http://www.w3.org/2000/svg" xmlns:xlink="http://www.w3.org/1999/xlink" width="2000" zoomAndPan="magnify" viewBox="0 0 1500 1499.999933" height="2000" preserveAspectRatio="xMidYMid meet" version="1.0"><path fill="#ffffff" d="M 750 351.671875 C 440.15625 351.671875 167.351562 498.066406 12.136719 721.484375 C -0.210938 741.472656 0.96875 763.226562 12.136719 777.925781 C 167.351562 1001.34375 440.15625 1148.328125 750 1148.328125 C 1059.84375 1148.328125 1332.648438 1001.34375 1487.863281 777.925781 C 1499.621094 761.464844 1499.621094 739.121094 1487.863281 721.484375 C 1332.648438 498.066406 1059.84375 351.671875 750 351.671875 Z M 750 451.621094 C 1013.984375 451.621094 1245.042969 570.972656 1383.796875 750.292969 C 1245.042969 929.027344 1013.984375 1048.964844 750 1048.964844 C 486.015625 1048.964844 254.957031 929.027344 116.203125 750.292969 C 254.957031 570.972656 485.429688 451.621094 750 451.621094 Z M 750 484.542969 C 604.191406 484.542969 484.253906 603.894531 484.253906 750.292969 C 484.253906 896.101562 604.191406 1015.453125 750 1015.453125 C 895.808594 1015.453125 1015.160156 896.101562 1015.160156 750.292969 C 1015.160156 603.894531 895.808594 484.542969 750 484.542969 Z M 750 583.90625 C 842.304688 583.90625 915.796875 657.984375 915.796875 750.292969 C 915.796875 842.597656 842.304688 916.089844 750 916.089844 C 657.695312 916.089844 584.203125 842.597656 584.203125 750.292969 C 584.203125 657.984375 657.695312 583.90625 750 583.90625 Z M 750 583.90625 " fill-opacity="1" fill-rule="nonzero"/></svg>