<svg xmlns="http://www.w3.org/2000/svg" xmlns:xlink="http://www.w3.org/1999/xlink" width="2000" zoomAndPan="magnify" viewBox="0 0 1500 1499.999933" height="2000" preserveAspectRatio="xMidYMid meet" version="1.0"><defs><filter x="0%" y="0%" width="100%" height="100%" id="9af6aae28e"><feColorMatrix values="0 0 0 0 1 0 0 0 0 1 0 0 0 0 1 0 0 0 1 0" color-interpolation-filters="sRGB"/></filter><g/><clipPath id="a2c6ff7a0b"><path d="M 8.230469 8.230469 L 1491.769531 8.230469 L 1491.769531 1491.769531 L 8.230469 1491.769531 Z M 8.230469 8.230469 " clip-rule="nonzero"/></clipPath><clipPath id="65535f0c6c"><path d="M 750 8.230469 C 340.332031 8.230469 8.230469 340.332031 8.230469 750 C 8.230469 1159.667969 340.332031 1491.769531 750 1491.769531 C 1159.667969 1491.769531 1491.769531 1159.667969 1491.769531 750 C 1491.769531 340.332031 1159.667969 8.230469 750 8.230469 Z M 750 8.230469 " clip-rule="nonzero"/></clipPath><clipPath id="9af56fef5a"><path d="M 0.230469 0.230469 L 1483.769531 0.230469 L 1483.769531 1483.769531 L 0.230469 1483.769531 Z M 0.230469 0.230469 " clip-rule="nonzero"/></clipPath><clipPath id="4d815c28f5"><path d="M 742 0.230469 C 332.332031 0.230469 0.230469 332.332031 0.230469 742 C 0.230469 1151.667969 332.332031 1483.769531 742 1483.769531 C 1151.667969 1483.769531 1483.769531 1151.667969 1483.769531 742 C 1483.769531 332.332031 1151.667969 0.230469 742 0.230469 Z M 742 0.230469 " clip-rule="nonzero"/></clipPath><clipPath id="f81a45f03b"><rect x="0" width="1484" y="0" height="1484"/></clipPath><clipPath id="2001a4892f"><rect x="0" width="1500" y="0" height="1500"/></clipPath><clipPath id="32b3f8505c"><rect x="0" width="1500" y="0" height="1500"/></clipPath><mask id="a9e7768242"><g filter="url(#9af6aae28e)"><g transform="matrix(1, 0, 0, 1, 0, 0.000000000000112861)"><g clip-path="url(#32b3f8505c)"><g transform="matrix(1, 0, 0, 1, 0, 0.000000000000112861)"><g clip-path="url(#2001a4892f)"><g fill="#000000" fill-opacity="1"><g transform="translate(149.603315, 1158.886286)"><g><path d="M 727.5625 124.59375 C 724.59375 121.625 722.367188 117.546875 720.890625 112.359375 C 697.160156 61.179688 666.007812 18.164062 627.4375 -16.6875 C 620.019531 -21.875 615.570312 -25.953125 614.09375 -28.921875 C 615.570312 -30.410156 620.765625 -31.15625 629.671875 -31.15625 L 670.828125 -28.921875 C 688.628906 -27.441406 697.898438 -27.070312 698.640625 -27.8125 C 702.347656 -29.289062 704.570312 -32.628906 705.3125 -37.828125 C 709.757812 -76.390625 712.726562 -143.878906 714.21875 -240.296875 L 714.21875 -327.078125 C 674.164062 -321.878906 622.617188 -311.863281 559.578125 -297.03125 L 492.828125 -274.78125 C 485.410156 -288.132812 480.21875 -302.597656 477.25 -318.171875 C 478.738281 -322.617188 483.191406 -329.289062 490.609375 -338.1875 C 504.703125 -356.726562 522.128906 -382.6875 542.890625 -416.0625 L 561.796875 -460.5625 C 565.503906 -467.238281 566.25 -470.578125 564.03125 -470.578125 C 551.425781 -467.609375 533.253906 -462.414062 509.515625 -455 C 499.878906 -463.90625 486.898438 -478.367188 470.578125 -498.390625 L 579.609375 -516.1875 L 585.171875 -523.984375 C 588.128906 -529.910156 590.722656 -536.582031 592.953125 -544 C 606.304688 -584.050781 618.546875 -622.617188 629.671875 -659.703125 C 629.671875 -661.179688 627.441406 -661.921875 622.984375 -661.921875 C 591.097656 -653.023438 564.398438 -646.351562 542.890625 -641.90625 L 531.765625 -641.90625 L 492.828125 -689.734375 C 558.835938 -696.410156 608.160156 -702.347656 640.796875 -707.546875 L 645.234375 -709.765625 L 650.796875 -730.90625 C 667.117188 -784.300781 677.503906 -832.132812 681.953125 -874.40625 L 684.171875 -896.65625 L 688.625 -898.890625 C 719.78125 -881.828125 749.445312 -860.6875 777.625 -835.46875 C 778.363281 -834.726562 778.734375 -831.765625 778.734375 -826.578125 C 778.734375 -822.128906 778.363281 -819.160156 777.625 -817.671875 C 762.050781 -788.753906 746.109375 -756.125 729.796875 -719.78125 C 777.253906 -729.414062 819.15625 -739.054688 855.5 -748.703125 C 871.070312 -751.671875 881.828125 -755.75 887.765625 -760.9375 C 892.210938 -764.644531 896.660156 -767.613281 901.109375 -769.84375 C 907.785156 -765.394531 918.171875 -757.234375 932.265625 -745.359375 C 934.484375 -743.878906 943.753906 -736.835938 960.078125 -724.234375 C 966.003906 -719.773438 968.96875 -716.4375 968.96875 -714.21875 C 968.96875 -711.988281 966.742188 -709.019531 962.296875 -705.3125 L 955.625 -700.859375 L 935.59375 -700.859375 C 849.5625 -694.929688 774.285156 -686.773438 709.765625 -676.390625 L 700.859375 -649.6875 L 687.515625 -612.984375 C 668.234375 -559.578125 657.476562 -531.394531 655.25 -528.4375 C 681.945312 -534.363281 710.875 -541.035156 742.03125 -548.453125 L 755.375 -555.125 L 762.046875 -552.90625 C 770.210938 -548.457031 782.453125 -538.445312 798.765625 -522.875 L 798.765625 -513.96875 C 798.023438 -508.78125 795.800781 -502.101562 792.09375 -493.9375 C 789.125 -465.757812 787.269531 -430.53125 786.53125 -388.25 L 818.78125 -393.8125 C 862.539062 -402.71875 891.46875 -409.394531 905.5625 -413.84375 C 918.164062 -417.550781 929.660156 -422.742188 940.046875 -429.421875 L 953.40625 -436.09375 C 971.945312 -424.226562 990.113281 -408.28125 1007.90625 -388.25 L 1012.359375 -379.359375 L 1005.6875 -372.6875 L 953.40625 -366 C 891.101562 -358.582031 837.332031 -350.796875 792.09375 -342.640625 L 786.53125 -342.640625 L 786.53125 10.015625 L 782.078125 33.375 C 777.628906 57.851562 770.210938 81.21875 759.828125 103.46875 C 750.929688 116.070312 744.628906 123.484375 740.921875 125.703125 C 734.984375 129.410156 730.53125 129.039062 727.5625 124.59375 Z M 110.140625 -101.234375 C 216.191406 -129.421875 328.550781 -162.796875 447.21875 -201.359375 C 453.894531 -204.328125 460.570312 -205.8125 467.25 -205.8125 C 470.957031 -205.8125 472.8125 -204.695312 472.8125 -202.46875 C 472.8125 -199.5 469.472656 -194.679688 462.796875 -188.015625 C 425.710938 -158.347656 348.207031 -112.734375 230.28125 -51.171875 L 206.921875 -38.9375 L 139.0625 -3.34375 L 121.265625 -48.953125 L 101.234375 -99.015625 Z M 214.703125 -525.09375 L 225.828125 -552.90625 C 263.660156 -638.9375 291.847656 -710.503906 310.390625 -767.609375 L 314.828125 -789.859375 L 314.828125 -854.390625 L 319.28125 -854.390625 C 357.84375 -829.171875 390.847656 -801.726562 418.296875 -772.0625 C 417.554688 -765.382812 413.476562 -758.335938 406.0625 -750.921875 C 368.976562 -691.585938 326.332031 -618.164062 278.125 -530.65625 L 372.6875 -530.65625 L 381.578125 -548.453125 C 407.535156 -598.890625 424.96875 -639.3125 433.875 -669.71875 C 433.875 -680.84375 435.726562 -686.40625 439.4375 -686.40625 C 441.65625 -686.40625 445.734375 -683.4375 451.671875 -677.5 C 459.085938 -668.601562 465.390625 -659.703125 470.578125 -650.796875 C 481.703125 -635.960938 489.863281 -625.953125 495.0625 -620.765625 C 505.4375 -607.410156 509.882812 -597.769531 508.40625 -591.84375 C 469.84375 -539.925781 427.566406 -484.300781 381.578125 -424.96875 C 347.460938 -384.175781 322.988281 -353.023438 308.15625 -331.515625 L 305.9375 -329.296875 L 312.609375 -329.296875 L 433.875 -359.328125 C 445 -349.691406 454.640625 -335.972656 462.796875 -318.171875 L 462.796875 -311.5 L 417.1875 -300.375 C 350.4375 -282.570312 294.441406 -265.882812 249.203125 -250.3125 C 235.847656 -245.863281 227.6875 -242.894531 224.71875 -241.40625 C 220.269531 -239.925781 214.335938 -238.070312 206.921875 -235.84375 C 201.734375 -235.101562 198.394531 -235.101562 196.90625 -235.84375 C 193.9375 -237.332031 191.710938 -239.554688 190.234375 -242.515625 C 182.078125 -264.765625 175.03125 -287.757812 169.09375 -311.5 C 172.0625 -314.46875 178.367188 -315.953125 188.015625 -315.953125 L 208.03125 -318.171875 L 216.9375 -324.84375 C 235.476562 -340.414062 260.691406 -367.113281 292.578125 -404.9375 C 317.796875 -439.0625 334.484375 -463.910156 342.640625 -479.484375 C 333.742188 -479.484375 314.09375 -477.257812 283.6875 -472.8125 C 239.1875 -466.875 205.441406 -460.9375 182.453125 -455 L 178 -452.78125 L 155.75 -513.96875 C 152.78125 -516.9375 151.296875 -520.644531 151.296875 -525.09375 Z M 445 -70.09375 L 447.21875 -78.984375 L 460.5625 -94.5625 C 512.476562 -150.925781 556.609375 -195.796875 592.953125 -229.171875 C 595.921875 -229.171875 597.40625 -227.316406 597.40625 -223.609375 L 595.171875 -214.703125 L 570.703125 -142.390625 C 544.003906 -73.421875 522.5 -25.585938 506.1875 1.109375 C 501.726562 5.554688 497.644531 7.78125 493.9375 7.78125 C 490.226562 7.78125 486.148438 4.816406 481.703125 -1.109375 C 469.835938 -17.429688 460.566406 -31.894531 453.890625 -44.5 L 445 -60.078125 Z M 567.359375 -343.75 C 574.035156 -343.75 584.789062 -345.234375 599.625 -348.203125 C 632.257812 -354.140625 669.710938 -362.300781 711.984375 -372.6875 C 711.984375 -413.476562 710.503906 -450.1875 707.546875 -482.8125 C 707.546875 -489.488281 706.0625 -493.195312 703.09375 -493.9375 C 681.582031 -493.195312 660.070312 -490.972656 638.5625 -487.265625 C 620.019531 -451.671875 596.660156 -406.0625 568.484375 -350.4375 C 565.515625 -345.976562 565.140625 -343.75 567.359375 -343.75 Z M 848.828125 -230.28125 C 848.828125 -236.21875 865.882812 -232.507812 900 -219.15625 C 928.1875 -207.289062 956.738281 -192.457031 985.65625 -174.65625 C 1015.320312 -150.925781 1036.460938 -132.753906 1049.078125 -120.140625 L 1051.296875 -110.140625 C 1037.203125 -78.984375 1014.582031 -51.910156 983.4375 -28.921875 L 976.765625 -28.921875 L 974.53125 -33.375 L 966.75 -51.171875 C 945.976562 -92.703125 918.164062 -136.085938 883.3125 -181.328125 L 853.28125 -220.265625 C 850.3125 -223.972656 848.828125 -227.3125 848.828125 -230.28125 Z M 848.828125 -230.28125 "/></g></g></g></g></g></g></g></g></mask><clipPath id="37e8553723"><path d="M 0 0 L 1500 0 L 1500 1500 L 0 1500 Z M 0 0 " clip-rule="nonzero"/></clipPath><linearGradient x1="1121.047" gradientTransform="matrix(0.750045, 0, 0, 0.749977, -134.650736, 14.785057)" y1="-19.714005" x2="1121.047" gradientUnits="userSpaceOnUse" y2="1980.346258" id="12ab043444"><stop stop-opacity="1" stop-color="rgb(0%, 58.039856%, 100%)" offset="0"/><stop stop-opacity="1" stop-color="rgb(0%, 57.873535%, 100%)" offset="0.03125"/><stop stop-opacity="1" stop-color="rgb(0%, 57.543945%, 100%)" offset="0.0390625"/><stop stop-opacity="1" stop-color="rgb(0%, 57.215881%, 100%)" offset="0.046875"/><stop stop-opacity="1" stop-color="rgb(0%, 56.889343%, 100%)" offset="0.0546875"/><stop stop-opacity="1" stop-color="rgb(0%, 56.561279%, 100%)" offset="0.0625"/><stop stop-opacity="1" stop-color="rgb(0%, 56.234741%, 100%)" offset="0.0703125"/><stop stop-opacity="1" stop-color="rgb(0%, 55.906677%, 100%)" offset="0.078125"/><stop stop-opacity="1" stop-color="rgb(0%, 55.578613%, 100%)" offset="0.0859375"/><stop stop-opacity="1" stop-color="rgb(0%, 55.252075%, 100%)" offset="0.09375"/><stop stop-opacity="1" stop-color="rgb(0%, 54.924011%, 100%)" offset="0.101562"/><stop stop-opacity="1" stop-color="rgb(0%, 54.595947%, 100%)" offset="0.109375"/><stop stop-opacity="1" stop-color="rgb(0%, 54.269409%, 100%)" offset="0.117188"/><stop stop-opacity="1" stop-color="rgb(0%, 53.941345%, 100%)" offset="0.125"/><stop stop-opacity="1" stop-color="rgb(0%, 53.613281%, 100%)" offset="0.132813"/><stop stop-opacity="1" stop-color="rgb(0%, 53.286743%, 100%)" offset="0.140625"/><stop stop-opacity="1" stop-color="rgb(0%, 52.958679%, 100%)" offset="0.148438"/><stop stop-opacity="1" stop-color="rgb(0%, 52.632141%, 100%)" offset="0.15625"/><stop stop-opacity="1" stop-color="rgb(0%, 52.304077%, 100%)" offset="0.164062"/><stop stop-opacity="1" stop-color="rgb(0%, 51.976013%, 100%)" offset="0.171875"/><stop stop-opacity="1" stop-color="rgb(0%, 51.649475%, 100%)" offset="0.179688"/><stop stop-opacity="1" stop-color="rgb(0%, 51.321411%, 100%)" offset="0.1875"/><stop stop-opacity="1" stop-color="rgb(0%, 50.993347%, 100%)" offset="0.195313"/><stop stop-opacity="1" stop-color="rgb(0%, 50.666809%, 100%)" offset="0.203125"/><stop stop-opacity="1" stop-color="rgb(0%, 50.338745%, 100%)" offset="0.210938"/><stop stop-opacity="1" stop-color="rgb(0%, 50.010681%, 100%)" offset="0.21875"/><stop stop-opacity="1" stop-color="rgb(0%, 49.684143%, 100%)" offset="0.226563"/><stop stop-opacity="1" stop-color="rgb(0%, 49.356079%, 100%)" offset="0.234375"/><stop stop-opacity="1" stop-color="rgb(0%, 49.029541%, 100%)" offset="0.242188"/><stop stop-opacity="1" stop-color="rgb(0%, 48.701477%, 100%)" offset="0.25"/><stop stop-opacity="1" stop-color="rgb(0%, 48.373413%, 100%)" offset="0.257812"/><stop stop-opacity="1" stop-color="rgb(0%, 48.046875%, 100%)" offset="0.265625"/><stop stop-opacity="1" stop-color="rgb(0%, 47.718811%, 100%)" offset="0.273438"/><stop stop-opacity="1" stop-color="rgb(0%, 47.390747%, 100%)" offset="0.28125"/><stop stop-opacity="1" stop-color="rgb(0%, 47.064209%, 100%)" offset="0.289062"/><stop stop-opacity="1" stop-color="rgb(0%, 46.736145%, 100%)" offset="0.296875"/><stop stop-opacity="1" stop-color="rgb(0%, 46.408081%, 100%)" offset="0.304688"/><stop stop-opacity="1" stop-color="rgb(0%, 46.081543%, 100%)" offset="0.3125"/><stop stop-opacity="1" stop-color="rgb(0%, 45.753479%, 100%)" offset="0.320313"/><stop stop-opacity="1" stop-color="rgb(0%, 45.426941%, 100%)" offset="0.328125"/><stop stop-opacity="1" stop-color="rgb(0%, 45.098877%, 100%)" offset="0.335938"/><stop stop-opacity="1" stop-color="rgb(0%, 44.770813%, 100%)" offset="0.34375"/><stop stop-opacity="1" stop-color="rgb(0%, 44.444275%, 100%)" offset="0.351562"/><stop stop-opacity="1" stop-color="rgb(0%, 44.116211%, 100%)" offset="0.359375"/><stop stop-opacity="1" stop-color="rgb(0%, 43.788147%, 100%)" offset="0.367188"/><stop stop-opacity="1" stop-color="rgb(0%, 43.461609%, 100%)" offset="0.375"/><stop stop-opacity="1" stop-color="rgb(0%, 43.133545%, 100%)" offset="0.382812"/><stop stop-opacity="1" stop-color="rgb(0%, 42.805481%, 100%)" offset="0.390625"/><stop stop-opacity="1" stop-color="rgb(0%, 42.478943%, 100%)" offset="0.398438"/><stop stop-opacity="1" stop-color="rgb(0%, 42.150879%, 100%)" offset="0.40625"/><stop stop-opacity="1" stop-color="rgb(0%, 41.824341%, 100%)" offset="0.414063"/><stop stop-opacity="1" stop-color="rgb(0%, 41.496277%, 100%)" offset="0.421875"/><stop stop-opacity="1" stop-color="rgb(0%, 41.168213%, 100%)" offset="0.429688"/><stop stop-opacity="1" stop-color="rgb(0%, 40.841675%, 100%)" offset="0.4375"/><stop stop-opacity="1" stop-color="rgb(0%, 40.513611%, 100%)" offset="0.445313"/><stop stop-opacity="1" stop-color="rgb(0%, 40.185547%, 100%)" offset="0.453125"/><stop stop-opacity="1" stop-color="rgb(0%, 39.859009%, 100%)" offset="0.460938"/><stop stop-opacity="1" stop-color="rgb(0%, 39.530945%, 100%)" offset="0.46875"/><stop stop-opacity="1" stop-color="rgb(0%, 39.202881%, 100%)" offset="0.476562"/><stop stop-opacity="1" stop-color="rgb(0%, 38.876343%, 100%)" offset="0.484375"/><stop stop-opacity="1" stop-color="rgb(0%, 38.548279%, 100%)" offset="0.492188"/><stop stop-opacity="1" stop-color="rgb(0%, 38.221741%, 100%)" offset="0.5"/><stop stop-opacity="1" stop-color="rgb(0%, 37.893677%, 100%)" offset="0.507812"/><stop stop-opacity="1" stop-color="rgb(0%, 37.565613%, 100%)" offset="0.515625"/><stop stop-opacity="1" stop-color="rgb(0%, 37.239075%, 100%)" offset="0.523438"/><stop stop-opacity="1" stop-color="rgb(0.0442505%, 36.949158%, 100%)" offset="0.53125"/><stop stop-opacity="1" stop-color="rgb(0.218201%, 36.772156%, 100%)" offset="0.539062"/><stop stop-opacity="1" stop-color="rgb(0.479126%, 36.669922%, 100%)" offset="0.546875"/><stop stop-opacity="1" stop-color="rgb(0.738525%, 36.566162%, 100%)" offset="0.554687"/><stop stop-opacity="1" stop-color="rgb(0.999451%, 36.463928%, 100%)" offset="0.5625"/><stop stop-opacity="1" stop-color="rgb(1.260376%, 36.360168%, 100%)" offset="0.570312"/><stop stop-opacity="1" stop-color="rgb(1.521301%, 36.257935%, 100%)" offset="0.578125"/><stop stop-opacity="1" stop-color="rgb(1.782227%, 36.154175%, 100%)" offset="0.585938"/><stop stop-opacity="1" stop-color="rgb(2.043152%, 36.051941%, 100%)" offset="0.59375"/><stop stop-opacity="1" stop-color="rgb(2.304077%, 35.948181%, 100%)" offset="0.601562"/><stop stop-opacity="1" stop-color="rgb(2.563477%, 35.845947%, 100%)" offset="0.609375"/><stop stop-opacity="1" stop-color="rgb(2.824402%, 35.742188%, 100%)" offset="0.617188"/><stop stop-opacity="1" stop-color="rgb(3.085327%, 35.639954%, 100%)" offset="0.625"/><stop stop-opacity="1" stop-color="rgb(3.346252%, 35.536194%, 100%)" offset="0.632812"/><stop stop-opacity="1" stop-color="rgb(3.607178%, 35.43396%, 100%)" offset="0.640625"/><stop stop-opacity="1" stop-color="rgb(3.868103%, 35.3302%, 100%)" offset="0.648437"/><stop stop-opacity="1" stop-color="rgb(4.129028%, 35.227966%, 100%)" offset="0.65625"/><stop stop-opacity="1" stop-color="rgb(4.388428%, 35.124207%, 100%)" offset="0.664062"/><stop stop-opacity="1" stop-color="rgb(4.649353%, 35.021973%, 100%)" offset="0.671875"/><stop stop-opacity="1" stop-color="rgb(4.910278%, 34.918213%, 100%)" offset="0.679688"/><stop stop-opacity="1" stop-color="rgb(5.171204%, 34.815979%, 100%)" offset="0.6875"/><stop stop-opacity="1" stop-color="rgb(5.432129%, 34.712219%, 100%)" offset="0.695312"/><stop stop-opacity="1" stop-color="rgb(5.693054%, 34.609985%, 100%)" offset="0.703125"/><stop stop-opacity="1" stop-color="rgb(5.953979%, 34.506226%, 100%)" offset="0.710938"/><stop stop-opacity="1" stop-color="rgb(6.213379%, 34.403992%, 100%)" offset="0.71875"/><stop stop-opacity="1" stop-color="rgb(6.474304%, 34.300232%, 100%)" offset="0.726562"/><stop stop-opacity="1" stop-color="rgb(6.735229%, 34.197998%, 100%)" offset="0.734375"/><stop stop-opacity="1" stop-color="rgb(6.996155%, 34.094238%, 100%)" offset="0.742187"/><stop stop-opacity="1" stop-color="rgb(7.25708%, 33.992004%, 100%)" offset="0.75"/><stop stop-opacity="1" stop-color="rgb(7.518005%, 33.888245%, 100%)" offset="0.757812"/><stop stop-opacity="1" stop-color="rgb(7.778931%, 33.786011%, 100%)" offset="0.765625"/><stop stop-opacity="1" stop-color="rgb(8.03833%, 33.682251%, 100%)" offset="0.773438"/><stop stop-opacity="1" stop-color="rgb(8.299255%, 33.580017%, 100%)" offset="0.78125"/><stop stop-opacity="1" stop-color="rgb(8.560181%, 33.476257%, 100%)" offset="0.789062"/><stop stop-opacity="1" stop-color="rgb(8.821106%, 33.374023%, 100%)" offset="0.796875"/><stop stop-opacity="1" stop-color="rgb(9.082031%, 33.270264%, 100%)" offset="0.804688"/><stop stop-opacity="1" stop-color="rgb(9.342957%, 33.16803%, 100%)" offset="0.8125"/><stop stop-opacity="1" stop-color="rgb(9.603882%, 33.06427%, 100%)" offset="0.820312"/><stop stop-opacity="1" stop-color="rgb(9.863281%, 32.962036%, 100%)" offset="0.828125"/><stop stop-opacity="1" stop-color="rgb(10.124207%, 32.858276%, 100%)" offset="0.835937"/><stop stop-opacity="1" stop-color="rgb(10.385132%, 32.756042%, 100%)" offset="0.84375"/><stop stop-opacity="1" stop-color="rgb(10.646057%, 32.652283%, 100%)" offset="0.851562"/><stop stop-opacity="1" stop-color="rgb(10.906982%, 32.550049%, 100%)" offset="0.859375"/><stop stop-opacity="1" stop-color="rgb(11.167908%, 32.446289%, 100%)" offset="0.867188"/><stop stop-opacity="1" stop-color="rgb(11.428833%, 32.344055%, 100%)" offset="0.875"/><stop stop-opacity="1" stop-color="rgb(11.688232%, 32.240295%, 100%)" offset="0.882812"/><stop stop-opacity="1" stop-color="rgb(11.949158%, 32.138062%, 100%)" offset="0.890625"/><stop stop-opacity="1" stop-color="rgb(12.210083%, 32.034302%, 100%)" offset="0.898438"/><stop stop-opacity="1" stop-color="rgb(12.471008%, 31.932068%, 100%)" offset="0.90625"/><stop stop-opacity="1" stop-color="rgb(12.731934%, 31.828308%, 100%)" offset="0.914062"/><stop stop-opacity="1" stop-color="rgb(12.992859%, 31.726074%, 100%)" offset="0.921875"/><stop stop-opacity="1" stop-color="rgb(13.253784%, 31.62384%, 100%)" offset="0.929687"/><stop stop-opacity="1" stop-color="rgb(13.513184%, 31.520081%, 100%)" offset="0.9375"/><stop stop-opacity="1" stop-color="rgb(13.774109%, 31.417847%, 100%)" offset="0.945312"/><stop stop-opacity="1" stop-color="rgb(14.035034%, 31.314087%, 100%)" offset="0.953125"/><stop stop-opacity="1" stop-color="rgb(14.295959%, 31.211853%, 100%)" offset="0.960938"/><stop stop-opacity="1" stop-color="rgb(14.556885%, 31.108093%, 100%)" offset="0.96875"/><stop stop-opacity="1" stop-color="rgb(14.81781%, 31.005859%, 100%)" offset="0.976562"/><stop stop-opacity="1" stop-color="rgb(15.078735%, 30.9021%, 100%)" offset="0.984375"/><stop stop-opacity="1" stop-color="rgb(15.338135%, 30.799866%, 100%)" offset="0.992188"/><stop stop-opacity="1" stop-color="rgb(15.59906%, 30.696106%, 100%)" offset="1"/></linearGradient><clipPath id="2dd820b6ef"><rect x="0" width="1500" y="0" height="1500"/></clipPath><clipPath id="bd8c1fb983"><rect x="0" width="1500" y="0" height="1500"/></clipPath></defs><g clip-path="url(#a2c6ff7a0b)"><g clip-path="url(#65535f0c6c)"><g transform="matrix(1, 0, 0, 1, 8, 8)"><g clip-path="url(#f81a45f03b)"><g clip-path="url(#9af56fef5a)"><g clip-path="url(#4d815c28f5)"><path fill="#b4e4ff" d="M 0.230469 0.230469 L 1483.769531 0.230469 L 1483.769531 1483.769531 L 0.230469 1483.769531 Z M 0.230469 0.230469 " fill-opacity="1" fill-rule="nonzero"/></g></g></g></g></g></g><g transform="matrix(1, 0, 0, 1, 0, 0.000000000000112861)"><g clip-path="url(#bd8c1fb983)"><g mask="url(#a9e7768242)"><g transform="matrix(1, 0, 0, 1, 0, 0.000000000000112861)"><g clip-path="url(#2dd820b6ef)"><g clip-path="url(#37e8553723)"><rect x="-546" fill="url(#12ab043444)" width="2592" y="-545.999976" height="2591.999885"/></g></g></g></g></g></g></svg>