<svg xmlns="http://www.w3.org/2000/svg" xmlns:xlink="http://www.w3.org/1999/xlink" width="2000" zoomAndPan="magnify" viewBox="0 0 1500 1499.999933" height="2000" preserveAspectRatio="xMidYMid meet" version="1.0"><defs><g/><clipPath id="d1a499d1be"><path d="M 8.230469 8.230469 L 1491.769531 8.230469 L 1491.769531 1491.769531 L 8.230469 1491.769531 Z M 8.230469 8.230469 " clip-rule="nonzero"/></clipPath><clipPath id="bc468b2af1"><path d="M 750 8.230469 C 340.332031 8.230469 8.230469 340.332031 8.230469 750 C 8.230469 1159.667969 340.332031 1491.769531 750 1491.769531 C 1159.667969 1491.769531 1491.769531 1159.667969 1491.769531 750 C 1491.769531 340.332031 1159.667969 8.230469 750 8.230469 Z M 750 8.230469 " clip-rule="nonzero"/></clipPath><clipPath id="788decb5e9"><path d="M 0.230469 0.230469 L 1483.769531 0.230469 L 1483.769531 1483.769531 L 0.230469 1483.769531 Z M 0.230469 0.230469 " clip-rule="nonzero"/></clipPath><clipPath id="429adf54a9"><path d="M 742 0.230469 C 332.332031 0.230469 0.230469 332.332031 0.230469 742 C 0.230469 1151.667969 332.332031 1483.769531 742 1483.769531 C 1151.667969 1483.769531 1483.769531 1151.667969 1483.769531 742 C 1483.769531 332.332031 1151.667969 0.230469 742 0.230469 Z M 742 0.230469 " clip-rule="nonzero"/></clipPath><clipPath id="26b9a7998b"><rect x="0" width="1484" y="0" height="1484"/></clipPath></defs><g clip-path="url(#d1a499d1be)"><g clip-path="url(#bc468b2af1)"><g transform="matrix(1, 0, 0, 1, 8, 8)"><g clip-path="url(#26b9a7998b)"><g clip-path="url(#788decb5e9)"><g clip-path="url(#429adf54a9)"><path fill="#ffd0d0" d="M 0.230469 0.230469 L 1483.769531 0.230469 L 1483.769531 1483.769531 L 0.230469 1483.769531 Z M 0.230469 0.230469 " fill-opacity="1" fill-rule="nonzero"/></g></g></g></g></g></g><g fill="#b40036" fill-opacity="1"><g transform="translate(193.751388, 1115.249884)"><g><path d="M 321.515625 155.75 C 321.515625 153.519531 325.59375 148.328125 333.75 140.171875 C 424.226562 79.359375 490.976562 19.285156 534 -40.046875 C 538.445312 -60.078125 540.671875 -78.25 540.671875 -94.5625 L 538.4375 -99.015625 L 518.421875 -94.5625 C 468.722656 -84.914062 415.320312 -73.421875 358.21875 -60.078125 C 353.769531 -60.078125 347.09375 -58.59375 338.1875 -55.625 C 335.96875 -57.851562 323.734375 -75.28125 301.484375 -107.90625 L 303.703125 -111.25 C 304.453125 -114.21875 308.160156 -115.703125 314.828125 -115.703125 C 393.441406 -122.367188 458.335938 -129.785156 509.515625 -137.953125 C 510.253906 -150.554688 510.625 -192.828125 510.625 -264.765625 C 510.625 -370.085938 510.253906 -441.660156 509.515625 -479.484375 L 508.40625 -620.765625 L 509.515625 -621.875 L 511.75 -621.875 C 516.9375 -621.875 524.351562 -619.28125 534 -614.09375 C 544.375 -605.9375 552.15625 -600.929688 557.34375 -599.078125 C 562.539062 -597.222656 571.441406 -596.296875 584.046875 -596.296875 C 594.429688 -597.773438 602.222656 -599.253906 607.421875 -600.734375 C 615.578125 -627.441406 622.992188 -657.851562 629.671875 -691.96875 C 596.296875 -689 552.90625 -682.320312 499.5 -671.9375 C 492.832031 -668.96875 482.453125 -667.113281 468.359375 -666.375 C 463.160156 -671.570312 456.851562 -680.101562 449.4375 -691.96875 L 442.765625 -707.546875 C 457.597656 -709.023438 476.507812 -711.25 499.5 -714.21875 C 570.695312 -721.632812 615.566406 -727.195312 634.109375 -730.90625 C 637.816406 -739.800781 643.378906 -775.398438 650.796875 -837.703125 L 653.03125 -933.375 C 685.664062 -919.28125 717.554688 -901.109375 748.703125 -878.859375 L 759.828125 -869.96875 L 759.828125 -863.28125 C 759.828125 -861.0625 759.085938 -857.726562 757.609375 -853.28125 C 747.222656 -830.28125 733.5 -794.679688 716.4375 -746.484375 C 715.695312 -743.515625 716.8125 -742.03125 719.78125 -742.03125 C 724.226562 -742.03125 732.382812 -744.253906 744.25 -748.703125 C 781.332031 -759.828125 806.175781 -768.359375 818.78125 -774.296875 C 826.945312 -778.742188 832.507812 -780.96875 835.46875 -780.96875 C 845.113281 -778 856.609375 -772.0625 869.953125 -763.15625 C 883.304688 -754.257812 892.207031 -746.472656 896.65625 -739.796875 C 899.625 -734.609375 898.882812 -730.160156 894.4375 -726.453125 C 884.789062 -723.484375 861.054688 -720.515625 823.234375 -717.546875 L 695.296875 -705.3125 C 668.597656 -647.46875 654.507812 -614.835938 653.03125 -607.421875 L 748.703125 -621.875 C 762.796875 -629.289062 773.921875 -634.484375 782.078125 -637.453125 L 792.09375 -637.453125 L 851.046875 -607.421875 L 864.40625 -598.515625 L 859.953125 -587.390625 C 848.085938 -477.628906 838.816406 -353.03125 832.140625 -213.59375 L 832.140625 -165.765625 C 842.523438 -166.503906 857.726562 -168.726562 877.75 -172.4375 C 902.96875 -173.914062 929.664062 -176.878906 957.84375 -181.328125 L 966.75 -188.015625 C 974.164062 -193.203125 980.84375 -195.796875 986.78125 -195.796875 C 994.9375 -195.796875 1006.054688 -190.972656 1020.140625 -181.328125 C 1037.941406 -167.242188 1053.890625 -152.039062 1067.984375 -135.71875 L 1069.09375 -126.828125 C 1069.09375 -121.628906 1067.984375 -117.175781 1065.765625 -113.46875 C 1062.796875 -111.25 1057.601562 -110.140625 1050.1875 -110.140625 C 1044.25 -110.140625 1040.171875 -110.507812 1037.953125 -111.25 C 994.929688 -117.925781 940.789062 -121.265625 875.53125 -121.265625 C 811 -121.265625 735.347656 -117.925781 648.578125 -111.25 L 579.609375 -103.46875 L 608.53125 -81.21875 C 616.6875 -73.050781 622.25 -67.859375 625.21875 -65.640625 L 643.015625 -51.171875 L 643.015625 -42.28125 C 643.015625 -40.789062 641.160156 -37.082031 637.453125 -31.15625 C 601.109375 5.1875 572.554688 32.628906 551.796875 51.171875 C 487.265625 96.410156 418.289062 130.523438 344.875 153.515625 C 330.78125 156.484375 322.992188 157.226562 321.515625 155.75 Z M 68.96875 -201.359375 C 106.050781 -216.929688 150.179688 -238.441406 201.359375 -265.890625 L 246.96875 -292.578125 L 249.203125 -422.75 L 249.203125 -485.046875 C 234.367188 -481.335938 216.195312 -475.773438 194.6875 -468.359375 L 142.390625 -450.5625 L 136.828125 -450.5625 L 116.8125 -475.03125 C 103.457031 -487.632812 96.78125 -495.421875 96.78125 -498.390625 C 122.738281 -504.328125 158.335938 -511.003906 203.578125 -518.421875 L 249.203125 -527.3125 L 249.203125 -582.9375 C 241.785156 -715.695312 231.769531 -809.144531 219.15625 -863.28125 C 216.9375 -869.21875 215.828125 -873.671875 215.828125 -876.640625 C 215.828125 -878.859375 218.050781 -879.96875 222.5 -879.96875 C 229.914062 -879.96875 235.109375 -879.597656 238.078125 -878.859375 L 323.734375 -856.609375 L 329.296875 -853.28125 L 324.84375 -813.21875 L 313.71875 -586.28125 L 312.609375 -546.234375 L 401.609375 -572.921875 C 410.503906 -562.546875 416.804688 -549.941406 420.515625 -535.109375 C 420.515625 -533.617188 417.550781 -532.132812 411.625 -530.65625 L 360.4375 -518.421875 L 312.609375 -507.296875 L 310.390625 -329.296875 L 356 -359.328125 C 381.207031 -374.898438 395.664062 -383.429688 399.375 -384.921875 C 406.789062 -387.890625 411.242188 -387.519531 412.734375 -383.8125 C 383.804688 -347.46875 342.273438 -301.113281 288.140625 -244.75 C 218.421875 -176.507812 161.3125 -126.445312 116.8125 -94.5625 C 107.914062 -100.5 98.644531 -107.546875 89 -115.703125 C 54.144531 -144.617188 32.265625 -164.269531 23.359375 -174.65625 L 21.140625 -179.109375 Z M 570.703125 -142.390625 C 582.566406 -142.390625 597.769531 -143.875 616.3125 -146.84375 L 766.5 -161.3125 C 769.46875 -259.207031 770.953125 -354.140625 770.953125 -446.109375 C 769.472656 -512.859375 766.503906 -556.242188 762.046875 -576.265625 C 762.046875 -579.234375 759.082031 -580.71875 753.15625 -580.71875 C 698.269531 -577.75 638.9375 -572.1875 575.15625 -564.03125 C 573.664062 -532.882812 572.921875 -513.972656 572.921875 -507.296875 L 572.921875 -472.8125 L 577.375 -472.8125 C 624.84375 -484.675781 658.21875 -491.71875 677.5 -493.9375 C 684.175781 -496.90625 690.109375 -498.390625 695.296875 -498.390625 L 705.3125 -496.171875 C 717.925781 -487.265625 726.828125 -477.992188 732.015625 -468.359375 C 732.015625 -465.390625 730.160156 -463.164062 726.453125 -461.6875 C 722.003906 -460.195312 713.472656 -458.710938 700.859375 -457.234375 C 645.984375 -449.816406 604.082031 -444.625 575.15625 -441.65625 L 572.921875 -359.328125 C 598.878906 -363.773438 630.773438 -372.675781 668.609375 -386.03125 C 673.796875 -389 678.613281 -390.484375 683.0625 -390.484375 C 688.257812 -390.484375 695.863281 -386.585938 705.875 -378.796875 C 715.882812 -371.015625 721.628906 -364.523438 723.109375 -359.328125 C 722.367188 -351.910156 717.921875 -347.460938 709.765625 -345.984375 C 699.378906 -345.242188 668.972656 -341.164062 618.546875 -333.75 C 600.742188 -330.78125 584.796875 -328.554688 570.703125 -327.078125 L 570.703125 -250.3125 C 585.535156 -250.3125 597.773438 -251.796875 607.421875 -254.765625 L 650.796875 -263.65625 C 664.890625 -265.144531 677.5 -268.113281 688.625 -272.5625 C 694.5625 -275.53125 700.125 -277.015625 705.3125 -277.015625 C 715.695312 -268.109375 725.335938 -257.351562 734.234375 -244.75 L 736.46875 -240.296875 L 727.5625 -231.390625 L 616.3125 -224.71875 C 600.738281 -221.75 584.796875 -220.265625 568.484375 -220.265625 Z M 716.4375 -65.640625 C 717.175781 -68.609375 719.773438 -70.09375 724.234375 -70.09375 C 724.972656 -70.09375 731.644531 -68.238281 744.25 -64.53125 C 831.769531 -23.738281 897.035156 17.796875 940.046875 60.078125 C 942.273438 64.523438 943.390625 68.601562 943.390625 72.3125 C 943.390625 78.25 939.3125 88.632812 931.15625 103.46875 C 920.03125 122.75 908.53125 137.953125 896.65625 149.078125 C 881.082031 161.679688 871.8125 165.390625 868.84375 160.203125 L 857.71875 142.390625 C 823.601562 72.679688 783.1875 10.382812 736.46875 -44.5 Z M 716.4375 -65.640625 "/></g></g></g></svg>