<svg xmlns="http://www.w3.org/2000/svg" xmlns:xlink="http://www.w3.org/1999/xlink" width="2000" zoomAndPan="magnify" viewBox="0 0 1500 1499.999933" height="2000" preserveAspectRatio="xMidYMid meet" version="1.0"><defs><filter x="0%" y="0%" width="100%" height="100%" id="ade8db5411"><feColorMatrix values="0 0 0 0 1 0 0 0 0 1 0 0 0 0 1 0 0 0 1 0" color-interpolation-filters="sRGB"/></filter><g/><clipPath id="7a9e01ceb2"><path d="M 8.230469 8.230469 L 1491.769531 8.230469 L 1491.769531 1491.769531 L 8.230469 1491.769531 Z M 8.230469 8.230469 " clip-rule="nonzero"/></clipPath><clipPath id="68d500717d"><path d="M 750 8.230469 C 340.332031 8.230469 8.230469 340.332031 8.230469 750 C 8.230469 1159.667969 340.332031 1491.769531 750 1491.769531 C 1159.667969 1491.769531 1491.769531 1159.667969 1491.769531 750 C 1491.769531 340.332031 1159.667969 8.230469 750 8.230469 Z M 750 8.230469 " clip-rule="nonzero"/></clipPath><clipPath id="9d56bc596a"><path d="M 0.230469 0.230469 L 1483.769531 0.230469 L 1483.769531 1483.769531 L 0.230469 1483.769531 Z M 0.230469 0.230469 " clip-rule="nonzero"/></clipPath><clipPath id="eb9133ba1a"><path d="M 742 0.230469 C 332.332031 0.230469 0.230469 332.332031 0.230469 742 C 0.230469 1151.667969 332.332031 1483.769531 742 1483.769531 C 1151.667969 1483.769531 1483.769531 1151.667969 1483.769531 742 C 1483.769531 332.332031 1151.667969 0.230469 742 0.230469 Z M 742 0.230469 " clip-rule="nonzero"/></clipPath><clipPath id="33bb627092"><rect x="0" width="1484" y="0" height="1484"/></clipPath><clipPath id="53e499bd5e"><rect x="0" width="1500" y="0" height="1500"/></clipPath><clipPath id="ba4290705a"><rect x="0" width="1500" y="0" height="1500"/></clipPath><mask id="beba395523"><g filter="url(#ade8db5411)"><g transform="matrix(1, 0, 0, 1, 0, 0.000000000000112861)"><g clip-path="url(#ba4290705a)"><g transform="matrix(1, 0, 0, 1, 0, 0.000000000000112861)"><g clip-path="url(#53e499bd5e)"><g fill="#000000" fill-opacity="1"><g transform="translate(193.751388, 1115.249889)"><g><path d="M 1070.203125 -3.34375 C 1053.890625 7.039062 1022.742188 21.503906 976.765625 40.046875 C 938.191406 57.847656 907.039062 74.535156 883.3125 90.109375 L 871.078125 99.015625 C 857.722656 98.273438 840.289062 96.789062 818.78125 94.5625 C 726.082031 77.5 635.601562 53.765625 547.34375 23.359375 C 419.78125 -22.617188 324.109375 -50.429688 260.328125 -60.078125 C 211.367188 -57.109375 165.753906 -47.46875 123.484375 -31.15625 L 112.359375 -26.703125 C 98.265625 -48.210938 86.769531 -68.609375 77.875 -87.890625 C 79.351562 -89.367188 81.578125 -90.851562 84.546875 -92.34375 C 108.273438 -98.269531 138.679688 -103.457031 175.765625 -107.90625 L 196.90625 -107.90625 L 208.03125 -117.921875 C 213.96875 -125.335938 221.382812 -137.945312 230.28125 -155.75 L 231.390625 -172.4375 C 231.390625 -188.007812 231.019531 -197.648438 230.28125 -201.359375 C 216.9375 -227.316406 200.25 -256.242188 180.21875 -288.140625 C 172.0625 -297.773438 167.984375 -306.300781 167.984375 -313.71875 C 167.984375 -319.65625 169.097656 -326.332031 171.328125 -333.75 L 216.9375 -427.1875 L 210.265625 -427.1875 C 185.046875 -427.1875 156.117188 -424.960938 123.484375 -420.515625 L 105.6875 -413.84375 L 101.234375 -418.296875 L 75.65625 -461.6875 C 93.445312 -461.6875 113.648438 -462.613281 136.265625 -464.46875 C 158.890625 -466.320312 180.585938 -468.359375 201.359375 -470.578125 C 221.378906 -473.546875 232.875 -476.515625 235.84375 -479.484375 C 238.070312 -481.703125 239.554688 -484.296875 240.296875 -487.265625 C 242.523438 -493.941406 245.492188 -497.28125 249.203125 -497.28125 C 252.910156 -497.28125 257.359375 -496.164062 262.546875 -493.9375 C 286.273438 -470.207031 303.703125 -451.296875 314.828125 -437.203125 C 314.085938 -434.984375 309.640625 -430.90625 301.484375 -424.96875 C 283.679688 -407.164062 265.507812 -383.800781 246.96875 -354.875 L 233.625 -324.84375 L 235.84375 -315.953125 C 237.332031 -311.492188 240.300781 -307.410156 244.75 -303.703125 L 269.21875 -281.453125 C 294.4375 -259.953125 311.125 -242.523438 319.28125 -229.171875 C 323.726562 -221.753906 325.953125 -213.96875 325.953125 -205.8125 C 325.953125 -198.394531 324.472656 -193.203125 321.515625 -190.234375 C 285.910156 -154.628906 259.578125 -129.785156 242.515625 -115.703125 C 240.296875 -114.953125 239.1875 -114.207031 239.1875 -113.46875 C 239.1875 -111.25 243.265625 -110.140625 251.421875 -110.140625 C 287.023438 -104.203125 331.894531 -93.816406 386.03125 -78.984375 C 495.800781 -48.578125 607.789062 -24.472656 722 -6.671875 L 716.4375 -12.234375 C 704.570312 -29.296875 694.5625 -45.984375 686.40625 -62.296875 L 679.734375 -76.765625 C 682.691406 -161.304688 684.914062 -236.582031 686.40625 -302.59375 L 686.40625 -418.296875 C 654.507812 -415.328125 637.820312 -413.84375 636.34375 -413.84375 C 617.800781 -413.101562 601.113281 -410.878906 586.28125 -407.171875 L 579.609375 -372.6875 C 564.773438 -291.101562 542.15625 -223.609375 511.75 -170.203125 C 484.300781 -139.054688 453.890625 -113.84375 420.515625 -94.5625 C 406.421875 -89.375 397.148438 -87.148438 392.703125 -87.890625 C 394.191406 -91.597656 398.644531 -98.269531 406.0625 -107.90625 C 444.625 -164.269531 475.769531 -230.648438 499.5 -307.046875 C 506.175781 -343.390625 511 -375.28125 513.96875 -402.71875 L 490.609375 -402.71875 C 441.660156 -398.269531 401.609375 -392.707031 370.453125 -386.03125 L 367.125 -386.03125 L 362.671875 -393.8125 C 353.023438 -411.613281 346.347656 -426.820312 342.640625 -439.4375 L 342.640625 -446.109375 C 411.617188 -446.109375 464.648438 -446.847656 501.734375 -448.328125 L 518.421875 -448.328125 C 521.390625 -498.765625 522.875 -546.601562 522.875 -591.84375 L 522.875 -600.734375 C 489.5 -594.804688 469.84375 -591.097656 463.90625 -589.609375 L 453.890625 -587.390625 L 449.4375 -589.609375 C 436.09375 -607.410156 426.453125 -624.84375 420.515625 -641.90625 L 518.421875 -646.359375 L 522.875 -646.359375 L 520.640625 -687.515625 C 519.898438 -732.753906 517.675781 -766.5 513.96875 -788.75 C 510.257812 -811 504.695312 -823.609375 497.28125 -826.578125 C 495.050781 -828.054688 494.675781 -829.351562 496.15625 -830.46875 C 497.644531 -831.582031 499.875 -832.140625 502.84375 -832.140625 L 510.625 -832.140625 C 522.5 -832.140625 530.289062 -831.769531 534 -831.03125 C 561.4375 -825.09375 577.378906 -821.007812 581.828125 -818.78125 C 587.765625 -816.5625 592.957031 -812.484375 597.40625 -806.546875 L 599.625 -803.21875 C 596.65625 -779.476562 595.171875 -747.585938 595.171875 -707.546875 L 595.171875 -648.578125 L 684.171875 -657.484375 L 688.625 -657.484375 L 688.625 -685.296875 C 685.65625 -755.003906 680.460938 -810.253906 673.046875 -851.046875 C 670.085938 -856.242188 668.609375 -860.320312 668.609375 -863.28125 C 668.609375 -864.03125 670.085938 -864.40625 673.046875 -864.40625 C 681.953125 -864.40625 692.707031 -861.804688 705.3125 -856.609375 C 732.757812 -849.929688 753.15625 -839.921875 766.5 -826.578125 L 773.171875 -819.90625 L 773.171875 -811 C 767.242188 -776.144531 763.535156 -743.140625 762.046875 -711.984375 L 762.046875 -666.375 L 770.953125 -666.375 C 795.421875 -670.082031 813.59375 -674.160156 825.46875 -678.609375 L 835.46875 -685.296875 C 848.082031 -669.710938 857.726562 -655.25 864.40625 -641.90625 L 873.296875 -624.109375 L 868.84375 -620.765625 L 864.40625 -616.3125 L 853.28125 -618.546875 C 845.863281 -619.285156 829.546875 -619.65625 804.328125 -619.65625 C 782.078125 -619.65625 767.984375 -619.285156 762.046875 -618.546875 L 759.828125 -616.3125 L 759.828125 -468.359375 C 792.460938 -471.328125 826.578125 -475.773438 862.171875 -481.703125 L 916.6875 -498.390625 C 919.65625 -495.421875 929.664062 -480.21875 946.71875 -452.78125 C 954.132812 -440.175781 957.101562 -431.644531 955.625 -427.1875 C 916.3125 -425.707031 851.046875 -424.226562 759.828125 -422.75 L 759.828125 -85.65625 L 755.375 -67.859375 L 737.578125 -27.8125 L 726.453125 -6.671875 L 816.5625 5.5625 C 878.863281 7.039062 947.46875 1.847656 1022.375 -10.015625 C 1040.175781 -12.984375 1053.15625 -14.46875 1061.3125 -14.46875 L 1070.203125 -12.234375 L 1072.4375 -7.78125 Z M 162.421875 -763.171875 L 184.671875 -763.171875 C 243.265625 -752.046875 293.695312 -733.503906 335.96875 -707.546875 L 347.09375 -696.421875 L 347.09375 -680.84375 L 333.75 -664.15625 C 312.976562 -639.675781 297.03125 -624.472656 285.90625 -618.546875 L 279.234375 -618.546875 L 271.453125 -630.78125 C 249.941406 -666.375 221.382812 -701.234375 185.78125 -735.359375 C 177.625 -744.992188 169.835938 -753.519531 162.421875 -760.9375 Z M 588.5 -452.78125 C 607.78125 -452.78125 626.691406 -454.265625 645.234375 -457.234375 C 662.296875 -460.203125 676.757812 -461.6875 688.625 -461.6875 L 690.859375 -616.3125 C 661.929688 -614.832031 632.632812 -612.609375 602.96875 -609.640625 L 592.953125 -609.640625 C 590.722656 -548.085938 589.238281 -505.441406 588.5 -481.703125 Z M 588.5 -452.78125 "/></g></g></g></g></g></g></g></g></mask><clipPath id="a8baafa0dc"><path d="M 0 0 L 1500 0 L 1500 1500 L 0 1500 Z M 0 0 " clip-rule="nonzero"/></clipPath><linearGradient x1="120.663031" gradientTransform="matrix(0.750045, 0, 0, 0.749977, -90.502694, -28.851346)" y1="1037.5" x2="2120.542335" gradientUnits="userSpaceOnUse" y2="1037.5" id="3599f23212"><stop stop-opacity="1" stop-color="rgb(69.40918%, 100%, 50.19989%)" offset="0"/><stop stop-opacity="1" stop-color="rgb(69.40918%, 100%, 50.19989%)" offset="0.125"/><stop stop-opacity="1" stop-color="rgb(69.337463%, 100%, 50.17395%)" offset="0.132812"/><stop stop-opacity="1" stop-color="rgb(69.102478%, 100%, 50.090027%)" offset="0.140625"/><stop stop-opacity="1" stop-color="rgb(68.77594%, 100%, 49.97406%)" offset="0.148438"/><stop stop-opacity="1" stop-color="rgb(68.449402%, 100%, 49.859619%)" offset="0.15625"/><stop stop-opacity="1" stop-color="rgb(68.122864%, 100%, 49.743652%)" offset="0.164063"/><stop stop-opacity="1" stop-color="rgb(67.796326%, 100%, 49.627686%)" offset="0.171875"/><stop stop-opacity="1" stop-color="rgb(67.471313%, 100%, 49.511719%)" offset="0.179688"/><stop stop-opacity="1" stop-color="rgb(67.144775%, 100%, 49.395752%)" offset="0.1875"/><stop stop-opacity="1" stop-color="rgb(66.818237%, 100%, 49.281311%)" offset="0.195313"/><stop stop-opacity="1" stop-color="rgb(66.491699%, 100%, 49.165344%)" offset="0.203125"/><stop stop-opacity="1" stop-color="rgb(66.165161%, 100%, 49.049377%)" offset="0.210938"/><stop stop-opacity="1" stop-color="rgb(65.838623%, 100%, 48.933411%)" offset="0.21875"/><stop stop-opacity="1" stop-color="rgb(65.512085%, 100%, 48.817444%)" offset="0.226562"/><stop stop-opacity="1" stop-color="rgb(65.187073%, 100%, 48.703003%)" offset="0.234375"/><stop stop-opacity="1" stop-color="rgb(64.860535%, 100%, 48.587036%)" offset="0.242188"/><stop stop-opacity="1" stop-color="rgb(64.533997%, 100%, 48.471069%)" offset="0.25"/><stop stop-opacity="1" stop-color="rgb(64.207458%, 100%, 48.355103%)" offset="0.257812"/><stop stop-opacity="1" stop-color="rgb(63.88092%, 100%, 48.239136%)" offset="0.265625"/><stop stop-opacity="1" stop-color="rgb(63.554382%, 100%, 48.124695%)" offset="0.273438"/><stop stop-opacity="1" stop-color="rgb(63.227844%, 100%, 48.008728%)" offset="0.28125"/><stop stop-opacity="1" stop-color="rgb(62.902832%, 100%, 47.892761%)" offset="0.289062"/><stop stop-opacity="1" stop-color="rgb(62.576294%, 100%, 47.776794%)" offset="0.296875"/><stop stop-opacity="1" stop-color="rgb(62.249756%, 100%, 47.660828%)" offset="0.304688"/><stop stop-opacity="1" stop-color="rgb(61.923218%, 100%, 47.546387%)" offset="0.3125"/><stop stop-opacity="1" stop-color="rgb(61.59668%, 100%, 47.43042%)" offset="0.320313"/><stop stop-opacity="1" stop-color="rgb(61.270142%, 100%, 47.314453%)" offset="0.328125"/><stop stop-opacity="1" stop-color="rgb(60.943604%, 100%, 47.198486%)" offset="0.335938"/><stop stop-opacity="1" stop-color="rgb(60.618591%, 100%, 47.084045%)" offset="0.34375"/><stop stop-opacity="1" stop-color="rgb(60.292053%, 100%, 46.968079%)" offset="0.351563"/><stop stop-opacity="1" stop-color="rgb(59.965515%, 100%, 46.852112%)" offset="0.359375"/><stop stop-opacity="1" stop-color="rgb(59.638977%, 100%, 46.736145%)" offset="0.367188"/><stop stop-opacity="1" stop-color="rgb(59.312439%, 100%, 46.620178%)" offset="0.375"/><stop stop-opacity="1" stop-color="rgb(58.985901%, 100%, 46.505737%)" offset="0.382812"/><stop stop-opacity="1" stop-color="rgb(58.659363%, 100%, 46.389771%)" offset="0.390625"/><stop stop-opacity="1" stop-color="rgb(58.334351%, 100%, 46.273804%)" offset="0.398438"/><stop stop-opacity="1" stop-color="rgb(58.007812%, 100%, 46.157837%)" offset="0.40625"/><stop stop-opacity="1" stop-color="rgb(57.681274%, 100%, 46.04187%)" offset="0.414062"/><stop stop-opacity="1" stop-color="rgb(57.354736%, 100%, 45.927429%)" offset="0.421875"/><stop stop-opacity="1" stop-color="rgb(57.028198%, 100%, 45.811462%)" offset="0.429688"/><stop stop-opacity="1" stop-color="rgb(56.70166%, 100%, 45.695496%)" offset="0.4375"/><stop stop-opacity="1" stop-color="rgb(56.375122%, 100%, 45.579529%)" offset="0.445313"/><stop stop-opacity="1" stop-color="rgb(56.05011%, 100%, 45.463562%)" offset="0.453125"/><stop stop-opacity="1" stop-color="rgb(55.723572%, 100%, 45.349121%)" offset="0.460938"/><stop stop-opacity="1" stop-color="rgb(55.397034%, 100%, 45.233154%)" offset="0.46875"/><stop stop-opacity="1" stop-color="rgb(55.070496%, 100%, 45.117188%)" offset="0.476563"/><stop stop-opacity="1" stop-color="rgb(54.743958%, 100%, 45.001221%)" offset="0.484375"/><stop stop-opacity="1" stop-color="rgb(54.417419%, 100%, 44.885254%)" offset="0.492188"/><stop stop-opacity="1" stop-color="rgb(54.090881%, 100%, 44.770813%)" offset="0.5"/><stop stop-opacity="1" stop-color="rgb(53.765869%, 100%, 44.654846%)" offset="0.507812"/><stop stop-opacity="1" stop-color="rgb(53.439331%, 100%, 44.538879%)" offset="0.515625"/><stop stop-opacity="1" stop-color="rgb(53.112793%, 100%, 44.422913%)" offset="0.523438"/><stop stop-opacity="1" stop-color="rgb(52.786255%, 100%, 44.306946%)" offset="0.53125"/><stop stop-opacity="1" stop-color="rgb(52.459717%, 100%, 44.192505%)" offset="0.539062"/><stop stop-opacity="1" stop-color="rgb(52.133179%, 100%, 44.076538%)" offset="0.546875"/><stop stop-opacity="1" stop-color="rgb(51.806641%, 100%, 43.960571%)" offset="0.554688"/><stop stop-opacity="1" stop-color="rgb(51.481628%, 100%, 43.844604%)" offset="0.5625"/><stop stop-opacity="1" stop-color="rgb(51.15509%, 100%, 43.728638%)" offset="0.570312"/><stop stop-opacity="1" stop-color="rgb(50.828552%, 100%, 43.614197%)" offset="0.578125"/><stop stop-opacity="1" stop-color="rgb(50.502014%, 100%, 43.49823%)" offset="0.585938"/><stop stop-opacity="1" stop-color="rgb(50.175476%, 100%, 43.382263%)" offset="0.59375"/><stop stop-opacity="1" stop-color="rgb(49.848938%, 100%, 43.266296%)" offset="0.601563"/><stop stop-opacity="1" stop-color="rgb(49.5224%, 100%, 43.15033%)" offset="0.609375"/><stop stop-opacity="1" stop-color="rgb(49.197388%, 100%, 43.035889%)" offset="0.617188"/><stop stop-opacity="1" stop-color="rgb(48.87085%, 100%, 42.919922%)" offset="0.625"/><stop stop-opacity="1" stop-color="rgb(48.544312%, 100%, 42.803955%)" offset="0.632813"/><stop stop-opacity="1" stop-color="rgb(48.217773%, 100%, 42.687988%)" offset="0.640625"/><stop stop-opacity="1" stop-color="rgb(47.891235%, 100%, 42.572021%)" offset="0.648438"/><stop stop-opacity="1" stop-color="rgb(47.564697%, 100%, 42.457581%)" offset="0.65625"/><stop stop-opacity="1" stop-color="rgb(47.238159%, 100%, 42.341614%)" offset="0.664062"/><stop stop-opacity="1" stop-color="rgb(46.913147%, 100%, 42.225647%)" offset="0.671875"/><stop stop-opacity="1" stop-color="rgb(46.586609%, 100%, 42.10968%)" offset="0.679688"/><stop stop-opacity="1" stop-color="rgb(46.260071%, 100%, 41.995239%)" offset="0.6875"/><stop stop-opacity="1" stop-color="rgb(45.933533%, 100%, 41.879272%)" offset="0.695312"/><stop stop-opacity="1" stop-color="rgb(45.606995%, 100%, 41.763306%)" offset="0.703125"/><stop stop-opacity="1" stop-color="rgb(45.280457%, 100%, 41.647339%)" offset="0.710938"/><stop stop-opacity="1" stop-color="rgb(44.953918%, 100%, 41.531372%)" offset="0.71875"/><stop stop-opacity="1" stop-color="rgb(44.628906%, 100%, 41.416931%)" offset="0.726563"/><stop stop-opacity="1" stop-color="rgb(44.302368%, 100%, 41.300964%)" offset="0.734375"/><stop stop-opacity="1" stop-color="rgb(43.97583%, 100%, 41.184998%)" offset="0.742188"/><stop stop-opacity="1" stop-color="rgb(43.649292%, 100%, 41.069031%)" offset="0.75"/><stop stop-opacity="1" stop-color="rgb(43.322754%, 100%, 40.953064%)" offset="0.757813"/><stop stop-opacity="1" stop-color="rgb(42.996216%, 100%, 40.838623%)" offset="0.765625"/><stop stop-opacity="1" stop-color="rgb(42.669678%, 100%, 40.722656%)" offset="0.773438"/><stop stop-opacity="1" stop-color="rgb(42.344666%, 100%, 40.606689%)" offset="0.78125"/><stop stop-opacity="1" stop-color="rgb(42.018127%, 100%, 40.490723%)" offset="0.789063"/><stop stop-opacity="1" stop-color="rgb(41.691589%, 100%, 40.374756%)" offset="0.796875"/><stop stop-opacity="1" stop-color="rgb(41.365051%, 100%, 40.260315%)" offset="0.804688"/><stop stop-opacity="1" stop-color="rgb(41.038513%, 100%, 40.144348%)" offset="0.8125"/><stop stop-opacity="1" stop-color="rgb(40.711975%, 100%, 40.028381%)" offset="0.820313"/><stop stop-opacity="1" stop-color="rgb(40.385437%, 100%, 39.912415%)" offset="0.828125"/><stop stop-opacity="1" stop-color="rgb(40.060425%, 100%, 39.796448%)" offset="0.835938"/><stop stop-opacity="1" stop-color="rgb(39.733887%, 100%, 39.682007%)" offset="0.84375"/><stop stop-opacity="1" stop-color="rgb(39.407349%, 100%, 39.56604%)" offset="0.851563"/><stop stop-opacity="1" stop-color="rgb(39.080811%, 100%, 39.450073%)" offset="0.859375"/><stop stop-opacity="1" stop-color="rgb(38.754272%, 100%, 39.334106%)" offset="0.867188"/><stop stop-opacity="1" stop-color="rgb(38.510132%, 100%, 39.247131%)" offset="0.875"/><stop stop-opacity="1" stop-color="rgb(38.42926%, 100%, 39.219666%)" offset="1"/></linearGradient><clipPath id="c5ae40e9d6"><rect x="0" width="1500" y="0" height="1500"/></clipPath><clipPath id="6408ffe369"><rect x="0" width="1500" y="0" height="1500"/></clipPath></defs><g clip-path="url(#7a9e01ceb2)"><g clip-path="url(#68d500717d)"><g transform="matrix(1, 0, 0, 1, 8, 8)"><g clip-path="url(#33bb627092)"><g clip-path="url(#9d56bc596a)"><g clip-path="url(#eb9133ba1a)"><path fill="#00743c" d="M 0.230469 0.230469 L 1483.769531 0.230469 L 1483.769531 1483.769531 L 0.230469 1483.769531 Z M 0.230469 0.230469 " fill-opacity="1" fill-rule="nonzero"/></g></g></g></g></g></g><g transform="matrix(1, 0, 0, 1, 0, 0.000000000000112861)"><g clip-path="url(#6408ffe369)"><g mask="url(#beba395523)"><g transform="matrix(1, 0, 0, 1, 0, 0.000000000000112861)"><g clip-path="url(#c5ae40e9d6)"><g clip-path="url(#a8baafa0dc)"><rect x="-546" fill="url(#3599f23212)" width="2592" y="-545.999976" height="2591.999885"/></g></g></g></g></g></g></svg>