<svg xmlns="http://www.w3.org/2000/svg" xmlns:xlink="http://www.w3.org/1999/xlink" width="2000" zoomAndPan="magnify" viewBox="0 0 1500 1499.999933" height="2000" preserveAspectRatio="xMidYMid meet" version="1.0"><defs><g/><clipPath id="414a6c877c"><path d="M 8.230469 8.230469 L 1491.769531 8.230469 L 1491.769531 1491.769531 L 8.230469 1491.769531 Z M 8.230469 8.230469 " clip-rule="nonzero"/></clipPath><clipPath id="405053a779"><path d="M 750 8.230469 C 340.332031 8.230469 8.230469 340.332031 8.230469 750 C 8.230469 1159.667969 340.332031 1491.769531 750 1491.769531 C 1159.667969 1491.769531 1491.769531 1159.667969 1491.769531 750 C 1491.769531 340.332031 1159.667969 8.230469 750 8.230469 Z M 750 8.230469 " clip-rule="nonzero"/></clipPath><clipPath id="7c1c8fd481"><path d="M 0.230469 0.230469 L 1483.769531 0.230469 L 1483.769531 1483.769531 L 0.230469 1483.769531 Z M 0.230469 0.230469 " clip-rule="nonzero"/></clipPath><clipPath id="cd3fa56d6c"><path d="M 742 0.230469 C 332.332031 0.230469 0.230469 332.332031 0.230469 742 C 0.230469 1151.667969 332.332031 1483.769531 742 1483.769531 C 1151.667969 1483.769531 1483.769531 1151.667969 1483.769531 742 C 1483.769531 332.332031 1151.667969 0.230469 742 0.230469 Z M 742 0.230469 " clip-rule="nonzero"/></clipPath><linearGradient x1="0" gradientTransform="matrix(5.795075, 0, 0, 5.795075, 0.230338, 0.230284)" y1="128" x2="255.999997" gradientUnits="userSpaceOnUse" y2="128" id="d610534897"><stop stop-opacity="1" stop-color="rgb(100%, 98.429871%, 79.998779%)" offset="0"/><stop stop-opacity="1" stop-color="rgb(100%, 98.370361%, 79.840088%)" offset="0.015625"/><stop stop-opacity="1" stop-color="rgb(100%, 98.254395%, 79.521179%)" offset="0.03125"/><stop stop-opacity="1" stop-color="rgb(100%, 98.138428%, 79.202271%)" offset="0.046875"/><stop stop-opacity="1" stop-color="rgb(100%, 98.020935%, 78.883362%)" offset="0.0625"/><stop stop-opacity="1" stop-color="rgb(100%, 97.904968%, 78.564453%)" offset="0.078125"/><stop stop-opacity="1" stop-color="rgb(100%, 97.789001%, 78.24707%)" offset="0.09375"/><stop stop-opacity="1" stop-color="rgb(100%, 97.673035%, 77.928162%)" offset="0.109375"/><stop stop-opacity="1" stop-color="rgb(100%, 97.555542%, 77.609253%)" offset="0.125"/><stop stop-opacity="1" stop-color="rgb(100%, 97.439575%, 77.290344%)" offset="0.140625"/><stop stop-opacity="1" stop-color="rgb(100%, 97.323608%, 76.971436%)" offset="0.15625"/><stop stop-opacity="1" stop-color="rgb(100%, 97.206116%, 76.654053%)" offset="0.171875"/><stop stop-opacity="1" stop-color="rgb(100%, 97.090149%, 76.335144%)" offset="0.1875"/><stop stop-opacity="1" stop-color="rgb(100%, 96.974182%, 76.016235%)" offset="0.203125"/><stop stop-opacity="1" stop-color="rgb(100%, 96.858215%, 75.697327%)" offset="0.21875"/><stop stop-opacity="1" stop-color="rgb(100%, 96.740723%, 75.378418%)" offset="0.234375"/><stop stop-opacity="1" stop-color="rgb(100%, 96.624756%, 75.061035%)" offset="0.25"/><stop stop-opacity="1" stop-color="rgb(100%, 96.508789%, 74.742126%)" offset="0.265625"/><stop stop-opacity="1" stop-color="rgb(100%, 96.391296%, 74.423218%)" offset="0.28125"/><stop stop-opacity="1" stop-color="rgb(100%, 96.27533%, 74.104309%)" offset="0.296875"/><stop stop-opacity="1" stop-color="rgb(100%, 96.159363%, 73.7854%)" offset="0.3125"/><stop stop-opacity="1" stop-color="rgb(100%, 96.043396%, 73.468018%)" offset="0.328125"/><stop stop-opacity="1" stop-color="rgb(100%, 95.925903%, 73.149109%)" offset="0.34375"/><stop stop-opacity="1" stop-color="rgb(100%, 95.809937%, 72.8302%)" offset="0.359375"/><stop stop-opacity="1" stop-color="rgb(100%, 95.69397%, 72.511292%)" offset="0.375"/><stop stop-opacity="1" stop-color="rgb(100%, 95.576477%, 72.192383%)" offset="0.390625"/><stop stop-opacity="1" stop-color="rgb(100%, 95.46051%, 71.875%)" offset="0.40625"/><stop stop-opacity="1" stop-color="rgb(100%, 95.344543%, 71.556091%)" offset="0.421875"/><stop stop-opacity="1" stop-color="rgb(100%, 95.228577%, 71.237183%)" offset="0.4375"/><stop stop-opacity="1" stop-color="rgb(100%, 95.111084%, 70.918274%)" offset="0.453125"/><stop stop-opacity="1" stop-color="rgb(100%, 94.995117%, 70.599365%)" offset="0.46875"/><stop stop-opacity="1" stop-color="rgb(100%, 94.87915%, 70.281982%)" offset="0.484375"/><stop stop-opacity="1" stop-color="rgb(100%, 94.761658%, 69.963074%)" offset="0.5"/><stop stop-opacity="1" stop-color="rgb(100%, 94.645691%, 69.644165%)" offset="0.515625"/><stop stop-opacity="1" stop-color="rgb(100%, 94.529724%, 69.325256%)" offset="0.53125"/><stop stop-opacity="1" stop-color="rgb(100%, 94.413757%, 69.007874%)" offset="0.546875"/><stop stop-opacity="1" stop-color="rgb(100%, 94.296265%, 68.688965%)" offset="0.5625"/><stop stop-opacity="1" stop-color="rgb(100%, 94.180298%, 68.370056%)" offset="0.578125"/><stop stop-opacity="1" stop-color="rgb(100%, 94.064331%, 68.051147%)" offset="0.59375"/><stop stop-opacity="1" stop-color="rgb(100%, 93.946838%, 67.732239%)" offset="0.609375"/><stop stop-opacity="1" stop-color="rgb(100%, 93.830872%, 67.414856%)" offset="0.625"/><stop stop-opacity="1" stop-color="rgb(100%, 93.714905%, 67.095947%)" offset="0.640625"/><stop stop-opacity="1" stop-color="rgb(100%, 93.597412%, 66.777039%)" offset="0.65625"/><stop stop-opacity="1" stop-color="rgb(100%, 93.481445%, 66.45813%)" offset="0.671875"/><stop stop-opacity="1" stop-color="rgb(100%, 93.365479%, 66.139221%)" offset="0.6875"/><stop stop-opacity="1" stop-color="rgb(100%, 93.249512%, 65.821838%)" offset="0.703125"/><stop stop-opacity="1" stop-color="rgb(100%, 93.132019%, 65.50293%)" offset="0.71875"/><stop stop-opacity="1" stop-color="rgb(100%, 93.016052%, 65.184021%)" offset="0.734375"/><stop stop-opacity="1" stop-color="rgb(100%, 92.900085%, 64.865112%)" offset="0.75"/><stop stop-opacity="1" stop-color="rgb(100%, 92.782593%, 64.546204%)" offset="0.765625"/><stop stop-opacity="1" stop-color="rgb(100%, 92.666626%, 64.228821%)" offset="0.78125"/><stop stop-opacity="1" stop-color="rgb(100%, 92.550659%, 63.909912%)" offset="0.796875"/><stop stop-opacity="1" stop-color="rgb(100%, 92.434692%, 63.591003%)" offset="0.8125"/><stop stop-opacity="1" stop-color="rgb(100%, 92.3172%, 63.272095%)" offset="0.828125"/><stop stop-opacity="1" stop-color="rgb(100%, 92.201233%, 62.953186%)" offset="0.84375"/><stop stop-opacity="1" stop-color="rgb(100%, 92.085266%, 62.635803%)" offset="0.859375"/><stop stop-opacity="1" stop-color="rgb(100%, 91.967773%, 62.316895%)" offset="0.875"/><stop stop-opacity="1" stop-color="rgb(100%, 91.851807%, 61.997986%)" offset="0.890625"/><stop stop-opacity="1" stop-color="rgb(100%, 91.73584%, 61.679077%)" offset="0.90625"/><stop stop-opacity="1" stop-color="rgb(100%, 91.619873%, 61.360168%)" offset="0.921875"/><stop stop-opacity="1" stop-color="rgb(100%, 91.50238%, 61.042786%)" offset="0.9375"/><stop stop-opacity="1" stop-color="rgb(100%, 91.386414%, 60.723877%)" offset="0.953125"/><stop stop-opacity="1" stop-color="rgb(100%, 91.270447%, 60.404968%)" offset="0.96875"/><stop stop-opacity="1" stop-color="rgb(100%, 91.152954%, 60.08606%)" offset="0.984375"/><stop stop-opacity="1" stop-color="rgb(100%, 91.036987%, 59.768677%)" offset="1"/></linearGradient><clipPath id="edcfe47b8c"><rect x="0" width="1484" y="0" height="1484"/></clipPath></defs><g clip-path="url(#414a6c877c)"><g clip-path="url(#405053a779)"><g transform="matrix(1, 0, 0, 1, 8, 8)"><g clip-path="url(#edcfe47b8c)"><g clip-path="url(#7c1c8fd481)"><g clip-path="url(#cd3fa56d6c)"><path fill="url(#d610534897)" d="M 0.230469 0.230469 L 0.230469 1483.769531 L 1483.769531 1483.769531 L 1483.769531 0.230469 Z M 0.230469 0.230469 " fill-rule="nonzero"/></g></g></g></g></g></g><g fill="#ffcb2f" fill-opacity="1"><g transform="translate(149.603315, 1158.886294)"><g><path d="M 933.375 37.828125 C 888.875 -2.222656 811.367188 -94.929688 700.859375 -240.296875 L 686.40625 -259.203125 L 670.828125 -240.296875 C 615.203125 -174.285156 556.613281 -117.550781 495.0625 -70.09375 C 444.625 -40.425781 396.039062 -18.175781 349.3125 -3.34375 C 325.582031 2.59375 311.863281 5.5625 308.15625 5.5625 C 305.9375 5.5625 304.828125 5.191406 304.828125 4.453125 C 304.828125 0.742188 311.5 -4.816406 324.84375 -12.234375 C 434.613281 -88.628906 535.476562 -183.929688 627.4375 -298.140625 C 635.59375 -308.523438 640.046875 -315.941406 640.796875 -320.390625 C 638.566406 -324.847656 628.179688 -340.050781 609.640625 -366 C 568.847656 -426.082031 539.179688 -467.25 520.640625 -489.5 C 499.878906 -514.707031 480.96875 -532.132812 463.90625 -541.78125 C 454.257812 -551.425781 449.066406 -557.359375 448.328125 -559.578125 C 446.109375 -564.023438 447.960938 -566.992188 453.890625 -568.484375 C 475.398438 -572.929688 508.035156 -576.265625 551.796875 -578.484375 L 561.796875 -555.125 C 580.335938 -517.300781 605.925781 -472.429688 638.5625 -420.515625 L 670.828125 -370.453125 L 675.28125 -372.6875 L 690.859375 -402.71875 C 728.679688 -482.820312 759.085938 -567 782.078125 -655.25 C 785.785156 -676.757812 789.492188 -702.347656 793.203125 -732.015625 L 793.203125 -736.46875 C 793.203125 -743.144531 791.347656 -747.222656 787.640625 -748.703125 L 782.078125 -750.921875 L 748.703125 -739.796875 C 674.535156 -713.835938 599.257812 -681.945312 522.875 -644.125 L 509.515625 -637.453125 C 490.234375 -658.222656 475.03125 -674.171875 463.90625 -685.296875 L 453.890625 -698.640625 L 462.796875 -698.640625 C 502.097656 -707.535156 572.179688 -729.046875 673.046875 -763.171875 C 721.253906 -780.960938 753.519531 -794.3125 769.84375 -803.21875 C 786.15625 -810.632812 794.3125 -819.90625 794.3125 -831.03125 C 794.3125 -835.476562 795.796875 -837.703125 798.765625 -837.703125 C 801.734375 -837.703125 808.40625 -834.734375 818.78125 -828.796875 C 846.226562 -814.703125 868.476562 -800.984375 885.53125 -787.640625 L 903.34375 -774.296875 C 901.851562 -766.878906 900.367188 -761.316406 898.890625 -757.609375 C 893.691406 -744.992188 884.421875 -714.953125 871.078125 -667.484375 C 856.242188 -619.273438 843.632812 -579.597656 833.25 -548.453125 L 823.234375 -518.421875 C 797.273438 -454.640625 769.835938 -396.414062 740.921875 -343.75 L 720.890625 -311.5 C 736.460938 -290.726562 765.382812 -258.09375 807.65625 -213.59375 C 888.5 -143.132812 973.421875 -81.578125 1062.421875 -28.921875 C 1080.960938 -20.765625 1091.71875 -14.460938 1094.6875 -10.015625 L 1080.21875 -3.34375 C 1078 -1.851562 1066.875 1.851562 1046.84375 7.78125 C 1003.832031 17.425781 973.425781 25.21875 955.625 31.15625 C 945.976562 35.601562 938.5625 37.828125 933.375 37.828125 Z M 89 -575.15625 L 91.21875 -578.484375 L 101.234375 -580.71875 C 129.421875 -580.71875 154.265625 -579.234375 175.765625 -576.265625 C 224.722656 -563.660156 258.84375 -547.71875 278.125 -528.4375 C 278.863281 -507.664062 271.445312 -476.882812 255.875 -436.09375 C 250.675781 -422 245.484375 -414.953125 240.296875 -414.953125 C 236.585938 -414.953125 233.25 -417.550781 230.28125 -422.75 C 228.0625 -424.96875 223.613281 -432.007812 216.9375 -443.875 C 198.394531 -466.125 164.273438 -500.984375 114.578125 -548.453125 L 89 -570.703125 Z M 130.15625 -183.5625 C 130.894531 -186.53125 132.378906 -188.015625 134.609375 -188.015625 C 140.546875 -185.046875 152.785156 -176.882812 171.328125 -163.53125 L 180.21875 -161.3125 L 190.234375 -170.203125 C 244.378906 -237.703125 308.160156 -340.796875 381.578125 -479.484375 C 391.960938 -498.023438 398.640625 -508.78125 401.609375 -511.75 C 406.054688 -511.75 408.28125 -508.78125 408.28125 -502.84375 L 294.8125 -190.234375 L 270.328125 -119.03125 L 259.203125 -90.109375 C 244.367188 -47.835938 231.765625 -21.140625 221.390625 -10.015625 C 214.710938 -3.335938 209.148438 0 204.703125 0 C 201.734375 0 198.394531 -1.851562 194.6875 -5.5625 C 163.53125 -64.894531 142.019531 -124.226562 130.15625 -183.5625 Z M 216.9375 -826.578125 L 228.0625 -826.578125 C 276.269531 -814.710938 322.625 -796.539062 367.125 -772.0625 L 377.125 -763.171875 L 377.125 -726.453125 L 370.453125 -715.328125 C 363.035156 -699.753906 355.25 -687.515625 347.09375 -678.609375 C 339.675781 -668.972656 333.742188 -664.15625 329.296875 -664.15625 C 325.585938 -664.15625 322.992188 -665.265625 321.515625 -667.484375 C 298.515625 -721.628906 268.101562 -767.613281 230.28125 -805.4375 C 222.863281 -812.113281 218.414062 -817.675781 216.9375 -822.125 Z M 216.9375 -826.578125 "/></g></g></g></svg>