<svg xmlns="http://www.w3.org/2000/svg" xmlns:xlink="http://www.w3.org/1999/xlink" width="2000" zoomAndPan="magnify" viewBox="0 0 1500 1499.999933" height="2000" preserveAspectRatio="xMidYMid meet" version="1.0"><defs><g/></defs><path fill="#ffffff" d="M 691.09375 64.609375 L 228.414062 626.53125 C 199.730469 661.363281 229.382812 704.332031 287.316406 704.332031 L 508.804688 704.332031 L 508.804688 1498.039062 L 991.191406 1498.039062 L 991.191406 704.335938 L 1212.679688 704.335938 C 1270.613281 704.335938 1300.269531 661.367188 1271.582031 626.535156 L 808.902344 64.609375 C 784.148438 34.550781 715.84375 34.550781 691.09375 64.609375 Z M 691.09375 64.609375 " fill-opacity="1" fill-rule="evenodd"/><g fill="#ffffff" fill-opacity="1"><g transform="translate(552.205066, 597.206309)"><g><path d="M 225.480469 -125.398438 L 225.480469 -174.054688 L 308.949219 -174.054688 L 308.949219 -125.398438 Z M 102.457031 -125.398438 C 103.246094 -140.035156 103.640625 -154.277344 103.640625 -166.933594 L 103.640625 -174.054688 L 178.011719 -174.054688 L 178.011719 -125.398438 Z M 178.011719 -263.851562 L 178.011719 -217.964844 L 103.640625 -217.964844 L 103.640625 -263.851562 Z M 308.949219 -217.964844 L 225.480469 -217.964844 L 225.480469 -263.851562 L 308.949219 -263.851562 Z M 355.625 -308.550781 L 56.964844 -308.550781 L 56.964844 -167.332031 C 56.964844 -111.949219 53.402344 -41.535156 10.285156 5.933594 C 20.964844 11.472656 39.953125 27.691406 47.46875 36.394531 C 75.953125 5.539062 90.191406 -37.976562 97.3125 -81.09375 L 178.011719 -81.09375 L 178.011719 29.273438 L 225.480469 29.273438 L 225.480469 -81.09375 L 308.949219 -81.09375 L 308.949219 -21.757812 C 308.949219 -14.636719 306.179688 -12.261719 298.664062 -12.261719 C 291.542969 -12.261719 265.433594 -11.867188 243.28125 -13.054688 C 249.214844 -0.792969 256.730469 19.382812 258.3125 32.042969 C 293.914062 32.4375 318.046875 31.644531 334.265625 23.734375 C 350.089844 16.613281 355.625 3.957031 355.625 -21.359375 Z M 355.625 -308.550781 "/></g></g></g></svg>