<svg xmlns="http://www.w3.org/2000/svg" xmlns:xlink="http://www.w3.org/1999/xlink" width="2000" zoomAndPan="magnify" viewBox="0 0 1500 1499.999933" height="2000" preserveAspectRatio="xMidYMid meet" version="1.0"><defs><filter x="0%" y="0%" width="100%" height="100%" id="5a58b65d5f"><feColorMatrix values="0 0 0 0 1 0 0 0 0 1 0 0 0 0 1 0 0 0 1 0" color-interpolation-filters="sRGB"/></filter><g/><clipPath id="3256fbe9da"><rect x="0" width="1500" y="0" height="1500"/></clipPath><clipPath id="afd4dc325f"><rect x="0" width="1500" y="0" height="1500"/></clipPath><mask id="fbdae59cf6"><g filter="url(#5a58b65d5f)"><g transform="matrix(1, 0, 0, 1, 0, 0.000000000000112861)"><g clip-path="url(#afd4dc325f)"><g transform="matrix(1, 0, 0, 1, 0, 0.000000000000112861)"><g clip-path="url(#3256fbe9da)"><g fill="#000000" fill-opacity="1"><g transform="translate(552.20101, 596.728722)"><g><path d="M 225.480469 -125.398438 L 225.480469 -174.054688 L 308.949219 -174.054688 L 308.949219 -125.398438 Z M 102.457031 -125.398438 C 103.246094 -140.035156 103.644531 -154.277344 103.644531 -166.9375 L 103.644531 -174.054688 L 178.011719 -174.054688 L 178.011719 -125.398438 Z M 178.011719 -263.855469 L 178.011719 -217.964844 L 103.644531 -217.964844 L 103.644531 -263.855469 Z M 308.949219 -217.964844 L 225.480469 -217.964844 L 225.480469 -263.855469 L 308.949219 -263.855469 Z M 355.628906 -308.554688 L 56.964844 -308.554688 L 56.964844 -167.332031 C 56.964844 -111.949219 53.402344 -41.535156 10.285156 5.933594 C 20.964844 11.472656 39.953125 27.691406 47.46875 36.394531 C 75.953125 5.539062 90.191406 -37.976562 97.3125 -81.09375 L 178.011719 -81.09375 L 178.011719 29.273438 L 225.480469 29.273438 L 225.480469 -81.09375 L 308.949219 -81.09375 L 308.949219 -21.757812 C 308.949219 -14.636719 306.179688 -12.261719 298.664062 -12.261719 C 291.542969 -12.261719 265.4375 -11.867188 243.285156 -13.054688 C 249.21875 -0.792969 256.734375 19.382812 258.316406 32.042969 C 293.917969 32.4375 318.046875 31.648438 334.269531 23.734375 C 350.089844 16.613281 355.628906 3.957031 355.628906 -21.363281 Z M 355.628906 -308.554688 "/></g></g></g></g></g></g></g></g></mask><clipPath id="614f05c87a"><path d="M 0 0 L 1500 0 L 1500 1500 L 0 1500 Z M 0 0 " clip-rule="nonzero"/></clipPath><linearGradient x1="-485.672074" gradientTransform="matrix(1.13744, 0, 0, 1.137282, 552.423082, 204.324162)" y1="242.5" x2="833.078203" gradientUnits="userSpaceOnUse" y2="242.5" id="a40ce41852"><stop stop-opacity="1" stop-color="rgb(0%, 59.21936%, 69.799805%)" offset="0"/><stop stop-opacity="1" stop-color="rgb(0%, 59.21936%, 69.799805%)" offset="0.25"/><stop stop-opacity="1" stop-color="rgb(0%, 59.21936%, 69.799805%)" offset="0.3125"/><stop stop-opacity="1" stop-color="rgb(0%, 59.21936%, 69.799805%)" offset="0.34375"/><stop stop-opacity="1" stop-color="rgb(0%, 59.21936%, 69.799805%)" offset="0.359375"/><stop stop-opacity="1" stop-color="rgb(0%, 59.21936%, 69.799805%)" offset="0.367188"/><stop stop-opacity="1" stop-color="rgb(0.628662%, 59.54895%, 69.345093%)" offset="0.371094"/><stop stop-opacity="1" stop-color="rgb(1.25885%, 59.87854%, 68.890381%)" offset="0.375"/><stop stop-opacity="1" stop-color="rgb(1.989746%, 60.261536%, 68.360901%)" offset="0.378906"/><stop stop-opacity="1" stop-color="rgb(2.722168%, 60.646057%, 67.832947%)" offset="0.382812"/><stop stop-opacity="1" stop-color="rgb(3.45459%, 61.029053%, 67.303467%)" offset="0.386719"/><stop stop-opacity="1" stop-color="rgb(4.187012%, 61.412048%, 66.775513%)" offset="0.390625"/><stop stop-opacity="1" stop-color="rgb(4.917908%, 61.795044%, 66.246033%)" offset="0.394531"/><stop stop-opacity="1" stop-color="rgb(5.65033%, 62.179565%, 65.718079%)" offset="0.398438"/><stop stop-opacity="1" stop-color="rgb(6.382751%, 62.562561%, 65.188599%)" offset="0.402344"/><stop stop-opacity="1" stop-color="rgb(7.115173%, 62.945557%, 64.660645%)" offset="0.40625"/><stop stop-opacity="1" stop-color="rgb(7.846069%, 63.328552%, 64.13269%)" offset="0.410156"/><stop stop-opacity="1" stop-color="rgb(8.578491%, 63.713074%, 63.604736%)" offset="0.414062"/><stop stop-opacity="1" stop-color="rgb(9.309387%, 64.096069%, 63.075256%)" offset="0.417969"/><stop stop-opacity="1" stop-color="rgb(10.041809%, 64.479065%, 62.547302%)" offset="0.421875"/><stop stop-opacity="1" stop-color="rgb(10.774231%, 64.862061%, 62.017822%)" offset="0.425781"/><stop stop-opacity="1" stop-color="rgb(11.506653%, 65.246582%, 61.489868%)" offset="0.429688"/><stop stop-opacity="1" stop-color="rgb(12.237549%, 65.629578%, 60.960388%)" offset="0.433594"/><stop stop-opacity="1" stop-color="rgb(12.969971%, 66.014099%, 60.432434%)" offset="0.4375"/><stop stop-opacity="1" stop-color="rgb(13.702393%, 66.397095%, 59.902954%)" offset="0.441406"/><stop stop-opacity="1" stop-color="rgb(14.434814%, 66.78009%, 59.375%)" offset="0.445312"/><stop stop-opacity="1" stop-color="rgb(15.16571%, 67.163086%, 58.84552%)" offset="0.449219"/><stop stop-opacity="1" stop-color="rgb(15.898132%, 67.547607%, 58.317566%)" offset="0.453125"/><stop stop-opacity="1" stop-color="rgb(16.630554%, 67.930603%, 57.788086%)" offset="0.457031"/><stop stop-opacity="1" stop-color="rgb(17.362976%, 68.313599%, 57.260132%)" offset="0.460938"/><stop stop-opacity="1" stop-color="rgb(18.093872%, 68.696594%, 56.730652%)" offset="0.464844"/><stop stop-opacity="1" stop-color="rgb(18.826294%, 69.081116%, 56.202698%)" offset="0.46875"/><stop stop-opacity="1" stop-color="rgb(19.558716%, 69.464111%, 55.674744%)" offset="0.472656"/><stop stop-opacity="1" stop-color="rgb(20.291138%, 69.847107%, 55.14679%)" offset="0.476562"/><stop stop-opacity="1" stop-color="rgb(21.022034%, 70.230103%, 54.61731%)" offset="0.480469"/><stop stop-opacity="1" stop-color="rgb(21.754456%, 70.614624%, 54.089355%)" offset="0.484375"/><stop stop-opacity="1" stop-color="rgb(22.486877%, 70.99762%, 53.559875%)" offset="0.488281"/><stop stop-opacity="1" stop-color="rgb(23.219299%, 71.380615%, 53.031921%)" offset="0.492188"/><stop stop-opacity="1" stop-color="rgb(23.950195%, 71.763611%, 52.502441%)" offset="0.496094"/><stop stop-opacity="1" stop-color="rgb(24.682617%, 72.148132%, 51.974487%)" offset="0.5"/><stop stop-opacity="1" stop-color="rgb(25.415039%, 72.531128%, 51.445007%)" offset="0.503906"/><stop stop-opacity="1" stop-color="rgb(26.147461%, 72.915649%, 50.917053%)" offset="0.507813"/><stop stop-opacity="1" stop-color="rgb(26.878357%, 73.298645%, 50.387573%)" offset="0.511719"/><stop stop-opacity="1" stop-color="rgb(27.610779%, 73.681641%, 49.859619%)" offset="0.515625"/><stop stop-opacity="1" stop-color="rgb(28.343201%, 74.064636%, 49.330139%)" offset="0.519531"/><stop stop-opacity="1" stop-color="rgb(29.075623%, 74.449158%, 48.802185%)" offset="0.523438"/><stop stop-opacity="1" stop-color="rgb(29.806519%, 74.832153%, 48.274231%)" offset="0.527344"/><stop stop-opacity="1" stop-color="rgb(30.53894%, 75.215149%, 47.746277%)" offset="0.53125"/><stop stop-opacity="1" stop-color="rgb(31.271362%, 75.598145%, 47.216797%)" offset="0.535156"/><stop stop-opacity="1" stop-color="rgb(32.003784%, 75.982666%, 46.688843%)" offset="0.539063"/><stop stop-opacity="1" stop-color="rgb(32.73468%, 76.365662%, 46.159363%)" offset="0.542969"/><stop stop-opacity="1" stop-color="rgb(33.467102%, 76.748657%, 45.631409%)" offset="0.546875"/><stop stop-opacity="1" stop-color="rgb(34.199524%, 77.131653%, 45.101929%)" offset="0.550781"/><stop stop-opacity="1" stop-color="rgb(34.931946%, 77.516174%, 44.573975%)" offset="0.554688"/><stop stop-opacity="1" stop-color="rgb(35.662842%, 77.89917%, 44.044495%)" offset="0.558594"/><stop stop-opacity="1" stop-color="rgb(36.395264%, 78.283691%, 43.516541%)" offset="0.5625"/><stop stop-opacity="1" stop-color="rgb(37.127686%, 78.666687%, 42.987061%)" offset="0.566406"/><stop stop-opacity="1" stop-color="rgb(37.860107%, 79.049683%, 42.459106%)" offset="0.570313"/><stop stop-opacity="1" stop-color="rgb(38.591003%, 79.432678%, 41.929626%)" offset="0.574219"/><stop stop-opacity="1" stop-color="rgb(39.323425%, 79.8172%, 41.401672%)" offset="0.578125"/><stop stop-opacity="1" stop-color="rgb(40.055847%, 80.200195%, 40.872192%)" offset="0.582031"/><stop stop-opacity="1" stop-color="rgb(40.788269%, 80.583191%, 40.344238%)" offset="0.585938"/><stop stop-opacity="1" stop-color="rgb(41.519165%, 80.966187%, 39.816284%)" offset="0.589844"/><stop stop-opacity="1" stop-color="rgb(42.251587%, 81.350708%, 39.28833%)" offset="0.59375"/><stop stop-opacity="1" stop-color="rgb(42.984009%, 81.733704%, 38.75885%)" offset="0.597656"/><stop stop-opacity="1" stop-color="rgb(43.716431%, 82.116699%, 38.230896%)" offset="0.601563"/><stop stop-opacity="1" stop-color="rgb(44.447327%, 82.499695%, 37.701416%)" offset="0.605469"/><stop stop-opacity="1" stop-color="rgb(45.179749%, 82.884216%, 37.173462%)" offset="0.609375"/><stop stop-opacity="1" stop-color="rgb(45.91217%, 83.267212%, 36.643982%)" offset="0.613281"/><stop stop-opacity="1" stop-color="rgb(46.644592%, 83.650208%, 36.116028%)" offset="0.617188"/><stop stop-opacity="1" stop-color="rgb(47.375488%, 84.033203%, 35.586548%)" offset="0.621094"/><stop stop-opacity="1" stop-color="rgb(48.10791%, 84.417725%, 35.058594%)" offset="0.625"/><stop stop-opacity="1" stop-color="rgb(48.757935%, 84.757996%, 34.588623%)" offset="0.628906"/><stop stop-opacity="1" stop-color="rgb(49.409485%, 85.099792%, 34.118652%)" offset="0.632813"/><stop stop-opacity="1" stop-color="rgb(49.409485%, 85.099792%, 34.118652%)" offset="0.640625"/><stop stop-opacity="1" stop-color="rgb(49.409485%, 85.099792%, 34.118652%)" offset="0.65625"/><stop stop-opacity="1" stop-color="rgb(49.409485%, 85.099792%, 34.118652%)" offset="0.6875"/><stop stop-opacity="1" stop-color="rgb(49.409485%, 85.099792%, 34.118652%)" offset="0.75"/><stop stop-opacity="1" stop-color="rgb(49.409485%, 85.099792%, 34.118652%)" offset="1"/></linearGradient><clipPath id="e050fef16a"><rect x="0" width="1500" y="0" height="1500"/></clipPath><clipPath id="bad8b18ae4"><rect x="0" width="1500" y="0" height="1500"/></clipPath><clipPath id="6e0c41c121"><rect x="0" width="1500" y="0" height="1500"/></clipPath></defs><path fill="#ffffff" d="M 691.09375 64.609375 L 228.414062 626.53125 C 199.730469 661.363281 229.382812 704.332031 287.316406 704.332031 L 508.804688 704.332031 L 508.804688 1498.039062 L 991.191406 1498.039062 L 991.191406 704.335938 L 1212.679688 704.335938 C 1270.613281 704.335938 1300.269531 661.367188 1271.582031 626.535156 L 808.902344 64.609375 C 784.148438 34.550781 715.84375 34.550781 691.09375 64.609375 Z M 691.09375 64.609375 " fill-opacity="1" fill-rule="evenodd"/><g transform="matrix(1, 0, 0, 1, 0, 0.000000000000112861)"><g clip-path="url(#6e0c41c121)"><g fill="#000000" fill-opacity="0"><g transform="translate(552.20101, 596.728722)"><g><path d="M 225.480469 -125.398438 L 225.480469 -174.054688 L 308.949219 -174.054688 L 308.949219 -125.398438 Z M 102.457031 -125.398438 C 103.246094 -140.035156 103.644531 -154.277344 103.644531 -166.9375 L 103.644531 -174.054688 L 178.011719 -174.054688 L 178.011719 -125.398438 Z M 178.011719 -263.855469 L 178.011719 -217.964844 L 103.644531 -217.964844 L 103.644531 -263.855469 Z M 308.949219 -217.964844 L 225.480469 -217.964844 L 225.480469 -263.855469 L 308.949219 -263.855469 Z M 355.628906 -308.554688 L 56.964844 -308.554688 L 56.964844 -167.332031 C 56.964844 -111.949219 53.402344 -41.535156 10.285156 5.933594 C 20.964844 11.472656 39.953125 27.691406 47.46875 36.394531 C 75.953125 5.539062 90.191406 -37.976562 97.3125 -81.09375 L 178.011719 -81.09375 L 178.011719 29.273438 L 225.480469 29.273438 L 225.480469 -81.09375 L 308.949219 -81.09375 L 308.949219 -21.757812 C 308.949219 -14.636719 306.179688 -12.261719 298.664062 -12.261719 C 291.542969 -12.261719 265.4375 -11.867188 243.285156 -13.054688 C 249.21875 -0.792969 256.734375 19.382812 258.316406 32.042969 C 293.917969 32.4375 318.046875 31.648438 334.269531 23.734375 C 350.089844 16.613281 355.628906 3.957031 355.628906 -21.363281 Z M 355.628906 -308.554688 "/></g></g></g><g transform="matrix(1, 0, 0, 1, 0, 0.000000000000112861)"><g clip-path="url(#bad8b18ae4)"><g mask="url(#fbdae59cf6)"><g transform="matrix(1, 0, 0, 1, 0, 0.000000000000112861)"><g clip-path="url(#e050fef16a)"><g clip-path="url(#614f05c87a)"><rect x="-805.2" fill="url(#a40ce41852)" width="3110.4" height="3110.399862" y="-805.199964"/></g></g></g></g></g></g><g fill="#000000" fill-opacity="0"><g transform="translate(552.20101, 596.728722)"><g><path d="M 225.480469 -125.398438 L 225.480469 -174.054688 L 308.949219 -174.054688 L 308.949219 -125.398438 Z M 102.457031 -125.398438 C 103.246094 -140.035156 103.644531 -154.277344 103.644531 -166.9375 L 103.644531 -174.054688 L 178.011719 -174.054688 L 178.011719 -125.398438 Z M 178.011719 -263.855469 L 178.011719 -217.964844 L 103.644531 -217.964844 L 103.644531 -263.855469 Z M 308.949219 -217.964844 L 225.480469 -217.964844 L 225.480469 -263.855469 L 308.949219 -263.855469 Z M 355.628906 -308.554688 L 56.964844 -308.554688 L 56.964844 -167.332031 C 56.964844 -111.949219 53.402344 -41.535156 10.285156 5.933594 C 20.964844 11.472656 39.953125 27.691406 47.46875 36.394531 C 75.953125 5.539062 90.191406 -37.976562 97.3125 -81.09375 L 178.011719 -81.09375 L 178.011719 29.273438 L 225.480469 29.273438 L 225.480469 -81.09375 L 308.949219 -81.09375 L 308.949219 -21.757812 C 308.949219 -14.636719 306.179688 -12.261719 298.664062 -12.261719 C 291.542969 -12.261719 265.4375 -11.867188 243.285156 -13.054688 C 249.21875 -0.792969 256.734375 19.382812 258.316406 32.042969 C 293.917969 32.4375 318.046875 31.648438 334.269531 23.734375 C 350.089844 16.613281 355.628906 3.957031 355.628906 -21.363281 Z M 355.628906 -308.554688 "/></g></g></g></g></g></svg>